<?xml version="1.0" encoding="utf-8"?>
<!-- Generator: Adobe Illustrator 16.0.0, SVG Export Plug-In . SVG Version: 6.00 Build 0)  -->
<!DOCTYPE svg PUBLIC "-//W3C//DTD SVG 1.1//EN" "http://www.w3.org/Graphics/SVG/1.1/DTD/svg11.dtd">
<svg version="1.1" id="Layer_1" xmlns="http://www.w3.org/2000/svg" xmlns:xlink="http://www.w3.org/1999/xlink" x="0px" y="0px"
	 width="160.336px" height="130.932px" viewBox="0 0 160.336 130.932" enable-background="new 0 0 160.336 130.932"
	 xml:space="preserve">
<g>
	<g>
		<g>
			<g>
				<linearGradient id="SVGID_1_" gradientUnits="userSpaceOnUse" x1="81.1333" y1="76.9592" x2="97.2163" y2="76.9592">
					<stop  offset="0" style="stop-color:#324C8F"/>
					<stop  offset="0.399" style="stop-color:#327FBB"/>
					<stop  offset="0.7291" style="stop-color:#317FBC"/>
					<stop  offset="1" style="stop-color:#2B4991"/>
				</linearGradient>
				<path fill="url(#SVGID_1_)" d="M97.216,76.737c0,1.061-0.206,2.063-0.615,3.007c-0.413,0.942-0.984,1.761-1.716,2.456
					c-0.733,0.695-1.611,1.243-2.631,1.646c-1.023,0.406-2.14,0.607-3.344,0.607c-1.159,0-2.217-0.195-3.165-0.585
					c-0.948-0.391-1.766-0.916-2.45-1.576c-0.685-0.657-1.217-1.425-1.595-2.306c-0.379-0.876-0.567-1.805-0.567-2.784
					c0-1.074,0.204-2.086,0.616-3.028c0.41-0.938,0.98-1.759,1.716-2.455c0.731-0.692,1.607-1.243,2.631-1.646
					c1.022-0.403,2.146-0.605,3.367-0.605c1.143,0,2.188,0.194,3.14,0.583c0.951,0.392,1.769,0.912,2.451,1.573
					c0.685,0.661,1.213,1.43,1.595,2.31C97.026,74.808,97.216,75.743,97.216,76.737z M89.369,83.603
					c0.867,0,1.696-0.129,2.485-0.382c0.787-0.256,1.481-0.651,2.076-1.181c0.596-0.532,1.07-1.199,1.426-1.999
					c0.354-0.801,0.531-1.756,0.531-2.858c0-1.009-0.18-1.932-0.542-2.778c-0.364-0.84-0.855-1.564-1.475-2.163
					c-0.621-0.604-1.349-1.074-2.185-1.416c-0.839-0.34-1.738-0.512-2.705-0.512c-0.872,0-1.698,0.129-2.486,0.384
					c-0.787,0.257-1.482,0.648-2.078,1.179c-0.593,0.534-1.07,1.202-1.424,2.013c-0.353,0.806-0.53,1.764-0.53,2.866
					c0,0.993,0.181,1.906,0.544,2.743c0.359,0.836,0.854,1.558,1.474,2.168c0.618,0.611,1.345,1.086,2.181,1.425
					C87.501,83.431,88.402,83.603,89.369,83.603z"/>
				<linearGradient id="SVGID_2_" gradientUnits="userSpaceOnUse" x1="80.9028" y1="76.9583" x2="97.4478" y2="76.9583">
					<stop  offset="0" style="stop-color:#324C8F"/>
					<stop  offset="0.399" style="stop-color:#327FBB"/>
					<stop  offset="0.7291" style="stop-color:#317FBC"/>
					<stop  offset="1" style="stop-color:#2B4991"/>
				</linearGradient>
				<path fill="url(#SVGID_2_)" d="M88.911,84.715c-1.182,0-2.275-0.203-3.244-0.602c-0.971-0.397-1.822-0.942-2.523-1.62
					c-0.705-0.681-1.26-1.484-1.649-2.391c-0.394-0.91-0.591-1.886-0.591-2.901c0-1.112,0.214-2.172,0.639-3.146
					c0.421-0.969,1.019-1.824,1.774-2.54c0.75-0.71,1.659-1.279,2.701-1.695c1.043-0.41,2.204-0.62,3.446-0.62
					c1.166,0,2.248,0.205,3.219,0.602c0.972,0.398,1.82,0.946,2.523,1.62c0.704,0.677,1.262,1.483,1.652,2.391
					c0.391,0.913,0.59,1.894,0.59,2.924c0,1.098-0.214,2.148-0.64,3.124c-0.424,0.971-1.021,1.823-1.773,2.539
					c-0.751,0.714-1.663,1.284-2.705,1.695C91.292,84.504,90.135,84.715,88.911,84.715z M89.463,69.729
					c-1.191,0-2.299,0.198-3.29,0.591c-0.991,0.392-1.852,0.931-2.56,1.601c-0.706,0.669-1.262,1.466-1.653,2.371
					c-0.396,0.9-0.595,1.879-0.595,2.91c0,0.935,0.185,1.831,0.542,2.671c0.365,0.843,0.881,1.587,1.538,2.222
					c0.657,0.633,1.457,1.147,2.379,1.524c0.919,0.379,1.956,0.567,3.086,0.567c1.175,0,2.271-0.196,3.267-0.589
					c0.991-0.393,1.85-0.929,2.559-1.603c0.704-0.666,1.261-1.462,1.655-2.366c0.393-0.904,0.591-1.875,0.591-2.892
					c0-0.947-0.182-1.854-0.544-2.693c-0.362-0.841-0.878-1.59-1.535-2.22c-0.658-0.634-1.457-1.147-2.377-1.528
					C91.607,69.921,90.575,69.729,89.463,69.729z M89.369,83.865c-0.988,0-1.925-0.179-2.783-0.527
					c-0.863-0.351-1.622-0.847-2.259-1.472c-0.643-0.631-1.156-1.388-1.531-2.255c-0.376-0.866-0.565-1.824-0.565-2.856
					c0-1.14,0.186-2.146,0.555-2.985c0.368-0.839,0.869-1.545,1.487-2.1c0.618-0.548,1.346-0.963,2.157-1.226
					c0.809-0.261,1.666-0.394,2.552-0.394c0.985,0,1.922,0.179,2.784,0.525c0.858,0.353,1.619,0.842,2.257,1.462
					c0.644,0.624,1.157,1.383,1.529,2.253c0.375,0.879,0.567,1.849,0.567,2.892c0,1.139-0.187,2.142-0.556,2.977
					c-0.369,0.832-0.868,1.535-1.488,2.087c-0.616,0.55-1.343,0.963-2.155,1.227C91.112,83.735,90.255,83.865,89.369,83.865z
					 M88.981,70.581c-0.843,0-1.657,0.124-2.424,0.368c-0.755,0.246-1.426,0.63-1.996,1.133c-0.565,0.507-1.024,1.154-1.36,1.919
					c-0.337,0.771-0.507,1.695-0.507,2.754c0,0.948,0.173,1.831,0.519,2.626c0.348,0.802,0.824,1.504,1.419,2.088
					c0.592,0.581,1.302,1.046,2.111,1.375c0.808,0.327,1.688,0.494,2.626,0.494c0.842,0,1.655-0.125,2.422-0.372
					c0.756-0.243,1.431-0.627,1.995-1.137c0.567-0.504,1.022-1.145,1.362-1.905c0.337-0.762,0.507-1.685,0.507-2.741
					c0-0.963-0.174-1.856-0.52-2.66c-0.349-0.807-0.821-1.506-1.416-2.086c-0.596-0.576-1.307-1.036-2.112-1.364
					C90.798,70.746,89.915,70.581,88.981,70.581z"/>
			</g>
			<g>
				<linearGradient id="SVGID_3_" gradientUnits="userSpaceOnUse" x1="99.9185" y1="78.6604" x2="111.4849" y2="78.6604">
					<stop  offset="0" style="stop-color:#324C8F"/>
					<stop  offset="0.399" style="stop-color:#327FBB"/>
					<stop  offset="0.7291" style="stop-color:#317FBC"/>
					<stop  offset="1" style="stop-color:#2B4991"/>
				</linearGradient>
				<path fill="url(#SVGID_3_)" d="M111.315,83.665c-0.127,0.056-0.308,0.128-0.543,0.212c-0.232,0.085-0.518,0.17-0.858,0.257
					c-0.336,0.083-0.73,0.16-1.182,0.223c-0.451,0.062-0.944,0.096-1.471,0.096c-0.789,0-1.615-0.1-2.476-0.299
					c-0.862-0.197-1.655-0.521-2.382-0.967c-0.721-0.445-1.318-1.028-1.787-1.743c-0.464-0.715-0.698-1.599-0.698-2.646
					c0-0.864,0.203-1.66,0.604-2.394c0.4-0.727,0.956-1.355,1.654-1.88c0.7-0.525,1.513-0.93,2.438-1.222
					c0.926-0.287,1.92-0.434,2.981-0.434c0.419,0,0.938,0.033,1.559,0.104c0.618,0.073,1.211,0.143,1.774,0.215l0.167,2.102
					c-0.145-0.168-0.315-0.356-0.517-0.563c-0.201-0.203-0.452-0.396-0.746-0.572c-0.302-0.179-0.662-0.331-1.089-0.457
					c-0.429-0.129-0.946-0.193-1.557-0.193c-0.967,0-1.821,0.132-2.56,0.395c-0.742,0.263-1.36,0.625-1.859,1.084
					c-0.501,0.46-0.877,1.001-1.135,1.614c-0.257,0.618-0.387,1.286-0.387,2.009c0,0.811,0.164,1.538,0.493,2.181
					c0.332,0.645,0.771,1.19,1.316,1.634c0.547,0.448,1.171,0.792,1.874,1.033c0.695,0.244,1.418,0.361,2.158,0.361
					c0.709,0,1.305-0.057,1.788-0.17c0.481-0.113,0.889-0.253,1.219-0.423c0.328-0.173,0.604-0.349,0.821-0.534
					c0.218-0.182,0.408-0.354,0.566-0.509L111.315,83.665z"/>
				<linearGradient id="SVGID_4_" gradientUnits="userSpaceOnUse" x1="99.686" y1="78.6575" x2="111.7925" y2="78.6575">
					<stop  offset="0" style="stop-color:#324C8F"/>
					<stop  offset="0.399" style="stop-color:#327FBB"/>
					<stop  offset="0.7291" style="stop-color:#317FBC"/>
					<stop  offset="1" style="stop-color:#2B4991"/>
				</linearGradient>
				<path fill="url(#SVGID_4_)" d="M107.261,84.715c-0.805,0-1.651-0.104-2.521-0.304c-0.884-0.204-1.705-0.536-2.445-0.992
					c-0.75-0.465-1.379-1.076-1.863-1.817c-0.494-0.761-0.746-1.701-0.746-2.805c0-0.91,0.214-1.762,0.64-2.53
					c0.42-0.759,0.998-1.42,1.723-1.962c0.718-0.535,1.56-0.96,2.507-1.257c0.939-0.294,1.964-0.448,3.042-0.448
					c0.424,0,0.956,0.038,1.582,0.109c0.619,0.073,1.212,0.143,1.778,0.215l0.186,0.021l0.248,3.062l-0.461-0.536
					c-0.141-0.165-0.311-0.349-0.505-0.55c-0.188-0.189-0.424-0.37-0.704-0.534c-0.281-0.169-0.63-0.316-1.035-0.438
					c-0.407-0.121-0.912-0.18-1.497-0.18c-0.938,0-1.778,0.126-2.491,0.377c-0.711,0.253-1.311,0.604-1.784,1.039
					c-0.469,0.433-0.829,0.946-1.071,1.523c-0.24,0.579-0.362,1.216-0.362,1.896c0,0.758,0.155,1.448,0.464,2.046
					c0.312,0.614,0.731,1.135,1.25,1.558c0.525,0.426,1.132,0.759,1.805,0.992c0.674,0.233,1.375,0.351,2.092,0.351
					c0.69,0,1.274-0.054,1.741-0.167c0.464-0.106,0.854-0.244,1.17-0.405c0.311-0.161,0.573-0.329,0.777-0.503
					c0.214-0.179,0.398-0.346,0.557-0.5l0.457-0.444l-0.265,2.321l-0.127,0.059c-0.134,0.056-0.316,0.131-0.557,0.217
					c-0.247,0.089-0.539,0.179-0.879,0.261c-0.343,0.087-0.75,0.163-1.204,0.23C108.306,84.681,107.803,84.715,107.261,84.715z
					 M107.597,73.13c-1.035,0-2.02,0.145-2.921,0.426c-0.896,0.281-1.694,0.682-2.372,1.19c-0.669,0.499-1.2,1.105-1.585,1.798
					c-0.377,0.685-0.566,1.442-0.566,2.253c0,0.986,0.221,1.824,0.652,2.49c0.446,0.681,1.02,1.24,1.713,1.667
					c0.698,0.434,1.479,0.748,2.313,0.943c1.413,0.323,2.795,0.354,3.872,0.194c0.441-0.06,0.835-0.134,1.163-0.217
					c0.326-0.079,0.604-0.166,0.836-0.248c0.156-0.057,0.293-0.11,0.402-0.153l0.077-0.682c-0.041,0.032-0.081,0.07-0.124,0.104
					c-0.231,0.199-0.521,0.385-0.863,0.562c-0.345,0.177-0.773,0.329-1.27,0.443c-0.494,0.113-1.111,0.175-1.834,0.175
					c-0.762,0-1.51-0.126-2.23-0.371c-0.717-0.249-1.371-0.609-1.938-1.068c-0.569-0.469-1.036-1.046-1.38-1.719
					c-0.352-0.684-0.527-1.46-0.527-2.313c0-0.757,0.138-1.472,0.409-2.122c0.27-0.645,0.673-1.218,1.198-1.708
					c0.519-0.479,1.171-0.854,1.936-1.126c0.761-0.271,1.646-0.41,2.632-0.41c0.627,0,1.172,0.07,1.613,0.203
					c0.44,0.13,0.822,0.291,1.136,0.479c0.316,0.186,0.583,0.392,0.797,0.61c0.025,0.023,0.053,0.053,0.077,0.078l-0.097-1.185
					c-0.505-0.062-1.034-0.126-1.583-0.189C108.522,73.164,108.007,73.13,107.597,73.13z"/>
			</g>
			<g>
				<linearGradient id="SVGID_5_" gradientUnits="userSpaceOnUse" x1="113.853" y1="78.6604" x2="122.2065" y2="78.6604">
					<stop  offset="0" style="stop-color:#324C8F"/>
					<stop  offset="0.399" style="stop-color:#327FBB"/>
					<stop  offset="0.7291" style="stop-color:#317FBC"/>
					<stop  offset="1" style="stop-color:#2B4991"/>
				</linearGradient>
				<path fill="url(#SVGID_5_)" d="M121.241,84.134h-7.388c0.144-0.1,0.267-0.207,0.371-0.32c0.105-0.114,0.196-0.247,0.269-0.404
					c0.071-0.153,0.128-0.352,0.168-0.594c0.039-0.242,0.06-0.538,0.06-0.895v-6.484c0-0.353-0.021-0.651-0.06-0.903
					c-0.04-0.246-0.097-0.452-0.168-0.613c-0.072-0.163-0.163-0.301-0.269-0.417c-0.104-0.112-0.228-0.222-0.371-0.316h6.928v1.485
					c-0.177-0.182-0.319-0.335-0.433-0.456c-0.115-0.121-0.251-0.218-0.423-0.284c-0.17-0.073-0.383-0.127-0.639-0.162
					c-0.261-0.035-0.607-0.051-1.04-0.051h-2.316v4.144h3.015c0.292,0,0.514-0.003,0.665-0.01c0.153-0.009,0.283-0.029,0.388-0.064
					c0.106-0.035,0.199-0.087,0.29-0.16c0.087-0.072,0.214-0.169,0.373-0.296v1.594c-0.143-0.115-0.261-0.204-0.35-0.277
					c-0.09-0.071-0.193-0.124-0.313-0.16c-0.122-0.035-0.271-0.061-0.446-0.073c-0.177-0.016-0.419-0.02-0.727-0.02h-2.895V81.9
					c0,0.328,0.015,0.6,0.046,0.82c0.033,0.218,0.12,0.394,0.265,0.519c0.146,0.129,0.372,0.222,0.678,0.278
					c0.306,0.059,0.741,0.086,1.304,0.086c0.596,0,1.103-0.055,1.523-0.16c0.415-0.107,0.774-0.242,1.071-0.404
					c0.299-0.162,0.558-0.336,0.774-0.521c0.217-0.184,0.423-0.362,0.615-0.53L121.241,84.134z"/>
				<linearGradient id="SVGID_6_" gradientUnits="userSpaceOnUse" x1="113.0142" y1="78.6614" x2="122.8882" y2="78.6614">
					<stop  offset="0" style="stop-color:#324C8F"/>
					<stop  offset="0.399" style="stop-color:#327FBB"/>
					<stop  offset="0.7291" style="stop-color:#317FBC"/>
					<stop  offset="1" style="stop-color:#2B4991"/>
				</linearGradient>
				<path fill="url(#SVGID_6_)" d="M121.384,84.398h-8.37l0.719-0.491c0.126-0.088,0.238-0.184,0.333-0.283
					c0.086-0.095,0.158-0.208,0.222-0.334c0.061-0.131,0.106-0.309,0.145-0.523c0.036-0.227,0.057-0.512,0.057-0.845v-6.484
					c0-0.332-0.021-0.618-0.057-0.854c-0.038-0.224-0.084-0.407-0.15-0.548c-0.058-0.134-0.13-0.249-0.216-0.342
					c-0.095-0.1-0.207-0.194-0.333-0.283l-0.719-0.486h8.001v2.348l-0.391-0.406c-0.179-0.183-0.322-0.336-0.438-0.459
					c-0.089-0.095-0.203-0.173-0.34-0.23c-0.154-0.063-0.353-0.111-0.593-0.143c-0.246-0.036-0.584-0.052-1.008-0.052h-2.084v3.617
					h2.782c0.285,0,0.505-0.004,0.654-0.011c0.136-0.005,0.248-0.024,0.331-0.054c0.082-0.025,0.155-0.066,0.224-0.121l0.741-0.589
					v2.602l-0.365-0.285c-0.146-0.115-0.263-0.207-0.353-0.277c-0.065-0.053-0.146-0.093-0.236-0.119
					c-0.11-0.033-0.242-0.053-0.406-0.067c-0.174-0.016-0.408-0.021-0.71-0.021h-2.662V81.9c0,0.312,0.013,0.571,0.045,0.776
					c0.021,0.154,0.08,0.271,0.179,0.354c0.077,0.07,0.24,0.163,0.571,0.228c0.289,0.052,0.716,0.08,1.265,0.08
					c0.574,0,1.071-0.054,1.472-0.152c0.403-0.104,0.745-0.231,1.021-0.384c0.282-0.154,0.531-0.323,0.737-0.496
					c0.216-0.184,0.42-0.358,0.611-0.531l0.824-0.723L121.384,84.398z M114.5,83.867h6.6l0.445-0.991
					c-0.187,0.141-0.398,0.271-0.627,0.401c-0.311,0.167-0.688,0.313-1.123,0.422c-0.435,0.109-0.965,0.166-1.573,0.166
					c-0.572,0-1.025-0.03-1.34-0.088c-0.349-0.068-0.604-0.175-0.783-0.329c-0.191-0.171-0.311-0.4-0.353-0.688
					c-0.034-0.236-0.049-0.519-0.049-0.861v-3.769h3.127c0.313,0,0.562,0.007,0.74,0.021c0.19,0.015,0.355,0.042,0.491,0.083
					c0.141,0.038,0.265,0.102,0.372,0.184v-0.582l-0.007,0.007c-0.11,0.088-0.23,0.152-0.356,0.198
					c-0.124,0.04-0.271,0.063-0.443,0.073c-0.154,0.007-0.381,0.01-0.677,0.01h-3.247v-4.672h2.549c0.438,0,0.8,0.019,1.064,0.057
					c0.275,0.039,0.51,0.097,0.693,0.173c0.199,0.081,0.366,0.196,0.505,0.342c0.014,0.014,0.025,0.03,0.038,0.045v-0.62H114.5
					c0.076,0.104,0.141,0.224,0.199,0.349c0.082,0.19,0.147,0.414,0.191,0.69c0.039,0.265,0.063,0.585,0.063,0.948v6.484
					c0,0.367-0.023,0.682-0.063,0.941c-0.047,0.272-0.112,0.489-0.191,0.671C114.641,83.655,114.577,83.766,114.5,83.867z"/>
			</g>
			<g>
				<linearGradient id="SVGID_7_" gradientUnits="userSpaceOnUse" x1="123.2954" y1="78.5012" x2="135.7798" y2="78.5012">
					<stop  offset="0" style="stop-color:#324C8F"/>
					<stop  offset="0.399" style="stop-color:#327FBB"/>
					<stop  offset="0.7291" style="stop-color:#317FBC"/>
					<stop  offset="1" style="stop-color:#2B4991"/>
				</linearGradient>
				<path fill="url(#SVGID_7_)" d="M134.522,82.709c0.111,0.214,0.207,0.382,0.291,0.512c0.078,0.128,0.163,0.234,0.251,0.327
					c0.09,0.094,0.187,0.179,0.292,0.266c0.104,0.085,0.242,0.19,0.424,0.32h-2.684c0.099-0.115,0.187-0.223,0.266-0.332
					c0.081-0.105,0.123-0.225,0.123-0.35c0-0.101-0.022-0.196-0.063-0.298c-0.038-0.097-0.082-0.2-0.131-0.296l-1.716-3.508h-4.396
					l-1.688,3.465c-0.065,0.139-0.125,0.3-0.183,0.478c-0.056,0.177-0.084,0.301-0.084,0.372c0,0.083,0.028,0.167,0.084,0.246
					c0.058,0.075,0.11,0.151,0.158,0.223h-2.172c0.255-0.142,0.515-0.307,0.771-0.49c0.258-0.184,0.497-0.504,0.725-0.957
					l4.926-9.818L134.522,82.709z M129.451,75.057l-1.978,3.763h3.861L129.451,75.057z"/>
				<linearGradient id="SVGID_8_" gradientUnits="userSpaceOnUse" x1="122.2817" y1="78.3635" x2="136.5757" y2="78.3635">
					<stop  offset="0" style="stop-color:#324C8F"/>
					<stop  offset="0.399" style="stop-color:#327FBB"/>
					<stop  offset="0.7291" style="stop-color:#317FBC"/>
					<stop  offset="1" style="stop-color:#2B4991"/>
				</linearGradient>
				<path fill="url(#SVGID_8_)" d="M136.576,84.398h-4.029l0.385-0.448c0.093-0.11,0.177-0.214,0.257-0.316
					c0.043-0.058,0.063-0.116,0.063-0.181c0-0.062-0.011-0.122-0.038-0.189c-0.036-0.09-0.079-0.185-0.126-0.277l-1.649-3.374h-4.12
					l-1.622,3.331c-0.058,0.124-0.115,0.278-0.167,0.439c-0.066,0.215-0.071,0.277-0.071,0.283c0,0.007,0,0.034,0.031,0.076
					c0.059,0.081,0.114,0.157,0.163,0.23l0.294,0.426h-3.663l0.911-0.502c0.247-0.137,0.499-0.296,0.749-0.474
					c0.221-0.159,0.439-0.453,0.646-0.865l5.133-10.228l5.006,10.252c0.104,0.196,0.197,0.361,0.275,0.483
					c0.068,0.11,0.143,0.209,0.221,0.289c0.084,0.087,0.17,0.168,0.268,0.246c0.102,0.084,0.24,0.187,0.412,0.312L136.576,84.398z
					 M133.608,83.867h1.43c-0.047-0.04-0.087-0.081-0.13-0.126c-0.102-0.106-0.196-0.229-0.286-0.369
					c-0.083-0.134-0.182-0.308-0.299-0.528l-4.608-9.438l-4.722,9.411c-0.245,0.496-0.511,0.842-0.802,1.05
					c-0.001,0-0.003,0-0.003,0h0.838c-0.021-0.065-0.033-0.132-0.033-0.202c0-0.107,0.03-0.246,0.099-0.463
					c0.062-0.186,0.124-0.358,0.192-0.507l1.762-3.609h4.666l1.781,3.646c0.055,0.103,0.099,0.206,0.141,0.313
					c0.053,0.136,0.084,0.271,0.084,0.408C133.717,83.603,133.681,83.741,133.608,83.867z M131.732,79.081h-4.672l2.396-4.551
					L131.732,79.081z M127.88,78.557h3.057l-1.492-2.979L127.88,78.557z"/>
			</g>
			<g>
				<linearGradient id="SVGID_9_" gradientUnits="userSpaceOnUse" x1="136.3091" y1="78.8401" x2="149.0815" y2="78.8401">
					<stop  offset="0" style="stop-color:#324C8F"/>
					<stop  offset="0.399" style="stop-color:#327FBB"/>
					<stop  offset="0.7291" style="stop-color:#317FBC"/>
					<stop  offset="1" style="stop-color:#2B4991"/>
				</linearGradient>
				<path fill="url(#SVGID_9_)" d="M148.746,84.493l-9.442-9.011v6.95c0,0.27,0,0.479,0,0.639c0,0.152,0.009,0.284,0.034,0.393
					c0.026,0.106,0.063,0.208,0.108,0.309c0.051,0.096,0.112,0.22,0.193,0.361h-1.446c0.095-0.142,0.168-0.266,0.215-0.361
					c0.05-0.101,0.086-0.202,0.109-0.309c0.024-0.108,0.038-0.24,0.05-0.393c0.008-0.159,0.011-0.369,0.011-0.639V74.76
					c-0.192-0.215-0.365-0.392-0.518-0.53c-0.156-0.145-0.311-0.273-0.471-0.385c-0.163-0.115-0.344-0.222-0.546-0.321
					c-0.2-0.097-0.445-0.213-0.734-0.337h2.366l9.344,8.926v-7.227c0-0.269-0.005-0.481-0.013-0.64
					c-0.008-0.153-0.022-0.285-0.048-0.393c-0.022-0.105-0.062-0.205-0.107-0.305c-0.049-0.103-0.121-0.222-0.218-0.362h1.448
					c-0.08,0.141-0.145,0.26-0.193,0.362c-0.048,0.1-0.084,0.199-0.107,0.305c-0.025,0.107-0.035,0.239-0.035,0.393
					c0,0.158,0,0.371,0,0.64V84.493z"/>
				<linearGradient id="SVGID_10_" gradientUnits="userSpaceOnUse" x1="135.064" y1="78.9915" x2="149.5083" y2="78.9915">
					<stop  offset="0" style="stop-color:#324C8F"/>
					<stop  offset="0.399" style="stop-color:#327FBB"/>
					<stop  offset="0.7291" style="stop-color:#317FBC"/>
					<stop  offset="1" style="stop-color:#2B4991"/>
				</linearGradient>
				<path fill="url(#SVGID_10_)" d="M148.976,85.06l-9.442-9.014v7.025c0,0.131,0.011,0.242,0.03,0.326
					c0.021,0.084,0.049,0.169,0.089,0.248c0.043,0.091,0.104,0.207,0.184,0.344l0.233,0.408h-2.354l0.292-0.426
					c0.089-0.127,0.154-0.237,0.199-0.328c0.038-0.077,0.066-0.162,0.086-0.246c0.021-0.089,0.036-0.205,0.043-0.343
					c0.007-0.149,0.008-0.359,0.008-0.622v-7.564c-0.157-0.172-0.302-0.317-0.431-0.437c-0.149-0.136-0.299-0.259-0.446-0.364
					c-0.151-0.106-0.324-0.209-0.514-0.298c-0.199-0.103-0.441-0.214-0.728-0.339l-1.161-0.507h3.695l9.026,8.623v-6.661
					c0-0.263-0.003-0.47-0.01-0.622c-0.008-0.14-0.023-0.254-0.041-0.344c-0.018-0.079-0.049-0.166-0.09-0.247
					c-0.042-0.087-0.108-0.199-0.197-0.328l-0.288-0.421h2.349l-0.23,0.405c-0.08,0.134-0.139,0.247-0.187,0.344
					c-0.036,0.081-0.065,0.162-0.086,0.247c-0.018,0.084-0.029,0.192-0.029,0.326V85.06z M139.069,74.915l9.439,9.012v-9.681
					c0-0.179,0.018-0.326,0.048-0.457c0.026-0.116,0.064-0.232,0.114-0.34h-0.602c0.05,0.11,0.09,0.227,0.115,0.34
					c0.027,0.129,0.046,0.271,0.054,0.443c0.012,0.158,0.017,0.377,0.017,0.653v7.792l-9.665-9.229h-1.146
					c0.095,0.054,0.183,0.11,0.267,0.172c0.165,0.116,0.333,0.251,0.496,0.403c0.158,0.143,0.335,0.326,0.534,0.543l0.068,0.079
					v7.786c0,0.273-0.005,0.491-0.011,0.649c-0.008,0.179-0.024,0.324-0.056,0.446c-0.028,0.117-0.067,0.233-0.115,0.339h0.602
					c-0.049-0.108-0.088-0.222-0.117-0.339c-0.028-0.126-0.043-0.281-0.043-0.457V74.915z"/>
			</g>
			<g>
				<g>
					<g>
						<linearGradient id="SVGID_11_" gradientUnits="userSpaceOnUse" x1="12.0068" y1="76.1399" x2="27.9521" y2="76.1399">
							<stop  offset="0" style="stop-color:#324C8F"/>
							<stop  offset="0.399" style="stop-color:#327FBB"/>
							<stop  offset="0.7291" style="stop-color:#317FBC"/>
							<stop  offset="1" style="stop-color:#2B4991"/>
						</linearGradient>
						<path fill="url(#SVGID_11_)" d="M27.366,82.12c-0.247,0-0.586,0.079-1.02,0.235c-0.435,0.154-0.928,0.331-1.488,0.521
							c-0.556,0.19-1.161,0.362-1.815,0.521c-0.655,0.153-1.327,0.231-2.017,0.231c-0.866,0-1.825-0.135-2.878-0.405
							c-1.054-0.266-2.035-0.699-2.945-1.294c-0.912-0.597-1.672-1.373-2.282-2.327c-0.611-0.954-0.915-2.128-0.915-3.514
							c0-1.079,0.243-2.074,0.73-2.986c0.484-0.912,1.143-1.7,1.977-2.354c0.829-0.661,1.799-1.175,2.914-1.542
							c1.117-0.369,2.3-0.555,3.557-0.555c0.531,0,1.061,0.038,1.591,0.106c0.532,0.072,1.034,0.152,1.514,0.247
							c0.477,0.091,0.922,0.17,1.339,0.24c0.414,0.072,0.774,0.109,1.074,0.109l-0.955,2.465c-0.106-0.227-0.23-0.484-0.372-0.777
							c-0.142-0.288-0.365-0.565-0.676-0.826c-0.31-0.263-0.743-0.484-1.298-0.661c-0.56-0.174-1.307-0.263-2.243-0.263
							c-1.098,0-2.097,0.17-2.999,0.51c-0.904,0.34-1.675,0.805-2.322,1.4c-0.644,0.599-1.145,1.296-1.498,2.104
							c-0.354,0.806-0.53,1.675-0.53,2.61c0,1.007,0.169,1.942,0.503,2.807c0.336,0.863,0.812,1.61,1.432,2.239
							c0.618,0.63,1.358,1.128,2.214,1.487c0.86,0.362,1.817,0.541,2.881,0.541c0.652,0,1.246-0.054,1.774-0.159
							c0.533-0.105,1-0.235,1.407-0.395c0.408-0.152,0.753-0.315,1.038-0.479c0.281-0.16,0.521-0.299,0.714-0.412v-1.082
							c0-0.355-0.008-0.634-0.026-0.831c-0.018-0.199-0.054-0.364-0.106-0.498c-0.054-0.133-0.138-0.259-0.252-0.371
							c-0.115-0.115-0.269-0.27-0.464-0.466h3.026c-0.143,0.196-0.253,0.351-0.334,0.466c-0.079,0.112-0.135,0.238-0.171,0.371
							c-0.036,0.134-0.059,0.299-0.067,0.498c-0.01,0.197-0.014,0.476-0.014,0.831V82.12z"/>
						<linearGradient id="SVGID_12_" gradientUnits="userSpaceOnUse" x1="11.8135" y1="76.1409" x2="28.3276" y2="76.1409">
							<stop  offset="0" style="stop-color:#324C8F"/>
							<stop  offset="0.399" style="stop-color:#327FBB"/>
							<stop  offset="0.7291" style="stop-color:#317FBC"/>
							<stop  offset="1" style="stop-color:#2B4991"/>
						</linearGradient>
						<path fill="url(#SVGID_12_)" d="M21.026,83.825c-0.876,0-1.86-0.135-2.925-0.406c-1.069-0.275-2.078-0.717-3-1.324
							c-0.93-0.606-1.716-1.405-2.338-2.383c-0.629-0.985-0.95-2.203-0.95-3.623c0-1.107,0.255-2.145,0.755-3.082
							c0.497-0.932,1.18-1.745,2.026-2.416c0.845-0.668,1.847-1.199,2.977-1.572c1.61-0.531,3.431-0.693,5.231-0.455
							c0.528,0.072,1.039,0.151,1.523,0.247c0.476,0.094,0.919,0.172,1.334,0.242c0.401,0.072,0.753,0.102,1.043,0.102h0.283
							l-1.222,3.151l-0.189-0.398c-0.104-0.229-0.227-0.488-0.369-0.774c-0.129-0.264-0.339-0.522-0.627-0.767
							c-0.289-0.242-0.705-0.455-1.235-0.621c-0.535-0.17-1.272-0.257-2.184-0.257c-1.07,0-2.056,0.169-2.933,0.498
							c-0.874,0.328-1.634,0.789-2.259,1.363c-0.625,0.576-1.113,1.263-1.452,2.036c-0.34,0.778-0.515,1.632-0.515,2.531
							c0,0.974,0.166,1.895,0.493,2.732c0.323,0.835,0.788,1.564,1.388,2.174c0.6,0.609,1.323,1.093,2.151,1.444
							c0.833,0.349,1.778,0.527,2.809,0.527c0.637,0,1.224-0.051,1.741-0.154c0.515-0.104,0.979-0.235,1.375-0.387
							c0.398-0.152,0.736-0.309,1.009-0.467c0.236-0.134,0.442-0.253,0.617-0.354v-0.968c0-0.349-0.007-0.62-0.024-0.812
							c-0.017-0.177-0.048-0.324-0.094-0.444c-0.042-0.106-0.11-0.206-0.206-0.303c-0.118-0.109-0.271-0.269-0.465-0.469
							l-0.334-0.336h3.869l-0.224,0.313c-0.141,0.196-0.249,0.353-0.328,0.467c-0.068,0.092-0.116,0.196-0.146,0.304
							c-0.03,0.125-0.052,0.276-0.059,0.458c-0.009,0.196-0.013,0.471-0.013,0.821v1.854h-0.193c-0.221,0-0.543,0.073-0.957,0.222
							c-0.435,0.158-0.929,0.331-1.488,0.521c-0.563,0.194-1.179,0.369-1.835,0.528C22.422,83.745,21.728,83.825,21.026,83.825z
							 M21.186,68.851c-1.229,0-2.404,0.184-3.497,0.541c-1.089,0.362-2.051,0.87-2.859,1.511c-0.805,0.638-1.454,1.412-1.924,2.297
							c-0.469,0.877-0.708,1.851-0.708,2.89c0,1.34,0.297,2.487,0.884,3.406c0.593,0.928,1.339,1.692,2.224,2.27
							c0.886,0.578,1.859,1.006,2.889,1.271c1.033,0.263,1.987,0.396,2.832,0.396c0.672,0,1.338-0.077,1.973-0.229
							c0.645-0.151,1.25-0.325,1.8-0.515c0.556-0.194,1.047-0.363,1.483-0.52c0.357-0.128,0.652-0.204,0.894-0.233v-1.47
							c0-0.357,0.003-0.637,0.014-0.837c0.008-0.212,0.031-0.395,0.072-0.544c0.038-0.155,0.108-0.304,0.202-0.436
							c0.033-0.044,0.068-0.097,0.11-0.154h-2.179c0.046,0.049,0.089,0.09,0.129,0.126c0.132,0.134,0.232,0.28,0.295,0.443
							c0.061,0.15,0.104,0.34,0.119,0.554c0.019,0.205,0.029,0.491,0.029,0.848v1.195l-0.097,0.06
							c-0.196,0.115-0.436,0.251-0.717,0.414c-0.292,0.165-0.646,0.333-1.063,0.49c-0.415,0.159-0.897,0.295-1.435,0.399
							c-0.545,0.111-1.151,0.165-1.813,0.165c-1.083,0-2.074-0.186-2.952-0.555c-0.876-0.37-1.643-0.885-2.278-1.532
							c-0.634-0.644-1.131-1.42-1.476-2.305c-0.343-0.883-0.517-1.854-0.517-2.88c0-0.958,0.184-1.864,0.547-2.693
							c0.361-0.827,0.881-1.557,1.545-2.17c0.662-0.609,1.464-1.091,2.384-1.438c0.919-0.343,1.948-0.52,3.064-0.52
							c0.951,0,1.724,0.09,2.296,0.271c0.579,0.185,1.04,0.416,1.366,0.692c0.33,0.281,0.574,0.582,0.728,0.895
							c0.063,0.133,0.124,0.258,0.182,0.376l0.693-1.787c-0.248-0.015-0.525-0.049-0.828-0.099
							c-0.415-0.072-0.864-0.152-1.343-0.245c-0.475-0.09-0.982-0.174-1.5-0.244C22.234,68.887,21.707,68.851,21.186,68.851z"/>
					</g>
					<g>
						<linearGradient id="SVGID_13_" gradientUnits="userSpaceOnUse" x1="28.8247" y1="77.8411" x2="41.4521" y2="77.8411">
							<stop  offset="0" style="stop-color:#324C8F"/>
							<stop  offset="0.399" style="stop-color:#327FBB"/>
							<stop  offset="0.7291" style="stop-color:#317FBC"/>
							<stop  offset="1" style="stop-color:#2B4991"/>
						</linearGradient>
						<path fill="url(#SVGID_13_)" d="M30.709,81.487c0,0.282,0.008,0.515,0.027,0.698c0.016,0.185,0.049,0.34,0.094,0.468
							c0.041,0.127,0.099,0.242,0.171,0.339c0.07,0.1,0.16,0.209,0.265,0.318h-2.442c0.108-0.109,0.196-0.219,0.265-0.318
							c0.072-0.097,0.129-0.212,0.176-0.339c0.042-0.128,0.073-0.283,0.091-0.468c0.018-0.184,0.027-0.416,0.027-0.698v-7.29
							c0-0.281-0.009-0.517-0.027-0.699c-0.018-0.184-0.049-0.339-0.091-0.467c-0.046-0.129-0.104-0.239-0.176-0.34
							c-0.069-0.101-0.157-0.208-0.265-0.319h3.213c0.688,0,1.347,0.057,1.978,0.17c0.625,0.113,1.168,0.283,1.629,0.511
							c0.461,0.227,0.825,0.513,1.102,0.859c0.274,0.346,0.41,0.761,0.41,1.242c0,0.467-0.116,0.853-0.345,1.157
							c-0.23,0.305-0.51,0.556-0.835,0.757c-0.328,0.197-0.662,0.353-1.008,0.466c-0.345,0.11-0.623,0.199-0.835,0.255l2.441,2.42
							c0.706,0.681,1.413,1.263,2.121,1.742c0.707,0.484,1.352,0.723,1.938,0.723c0.105,0,0.214-0.005,0.331-0.01
							c0.115-0.009,0.224-0.011,0.332-0.011c0.105,0,0.157,0.027,0.157,0.081c0,0.161-0.131,0.292-0.396,0.406
							c-0.265,0.116-0.628,0.17-1.089,0.17c-0.334,0-0.662-0.033-0.979-0.107c-0.32-0.07-0.69-0.242-1.115-0.516
							c-0.425-0.281-0.94-0.682-1.539-1.214c-0.601-0.532-1.354-1.257-2.254-2.177l-1.407-1.4h-1.963V81.487z M32.409,77.363
							c1.148,0,1.982-0.219,2.506-0.659c0.521-0.437,0.783-0.955,0.783-1.55c0-0.552-0.185-0.979-0.557-1.284
							c-0.374-0.305-0.819-0.53-1.34-0.669c-0.522-0.143-1.071-0.227-1.646-0.256c-0.574-0.029-1.057-0.043-1.445-0.043v4.461
							H32.409z"/>
						<linearGradient id="SVGID_14_" gradientUnits="userSpaceOnUse" x1="28.3745" y1="77.8401" x2="41.6445" y2="77.8401">
							<stop  offset="0" style="stop-color:#324C8F"/>
							<stop  offset="0.399" style="stop-color:#327FBB"/>
							<stop  offset="0.7291" style="stop-color:#317FBC"/>
							<stop  offset="1" style="stop-color:#2B4991"/>
						</linearGradient>
						<path fill="url(#SVGID_14_)" d="M39.966,83.508c-0.346,0-0.69-0.038-1.02-0.11c-0.338-0.076-0.738-0.261-1.175-0.547
							c-0.432-0.279-0.956-0.693-1.561-1.229c-0.605-0.534-1.368-1.271-2.267-2.188l-1.35-1.345h-1.692v3.396
							c0,0.282,0.009,0.505,0.026,0.678c0.013,0.167,0.042,0.307,0.082,0.418c0.037,0.113,0.087,0.206,0.147,0.292
							c0.064,0.092,0.147,0.192,0.249,0.299l0.314,0.335h-3.345l0.314-0.335c0.1-0.106,0.183-0.207,0.248-0.299
							c0.058-0.079,0.111-0.179,0.146-0.292c0.038-0.108,0.065-0.251,0.082-0.418c0.017-0.175,0.026-0.406,0.026-0.678v-7.29
							c0-0.274-0.009-0.5-0.026-0.682c-0.017-0.165-0.044-0.308-0.082-0.419c-0.036-0.11-0.087-0.205-0.146-0.29
							c-0.065-0.09-0.15-0.192-0.248-0.299l-0.312-0.335h3.661c0.697,0,1.373,0.06,2.009,0.177c0.638,0.113,1.204,0.289,1.68,0.524
							c0.483,0.236,0.875,0.547,1.167,0.913c0.301,0.381,0.456,0.84,0.456,1.367c0,0.51-0.131,0.94-0.386,1.277
							c-0.244,0.324-0.544,0.596-0.89,0.806c-0.341,0.202-0.69,0.367-1.049,0.482c-0.195,0.065-0.367,0.12-0.517,0.165l2.198,2.186
							c0.695,0.663,1.399,1.242,2.094,1.716c0.671,0.457,1.286,0.69,1.833,0.69c0.101,0,0.207-0.005,0.318-0.009
							c0.12-0.01,0.233-0.014,0.345-0.014c0.333,0,0.349,0.235,0.349,0.28c0,0.247-0.17,0.441-0.517,0.588
							C40.839,83.448,40.459,83.508,39.966,83.508z M30.519,77.695h2.232l1.461,1.459c0.893,0.913,1.648,1.64,2.247,2.17
							c0.592,0.522,1.104,0.924,1.516,1.193c0.403,0.263,0.758,0.428,1.054,0.493c0.304,0.068,0.619,0.104,0.938,0.104
							c0.435,0,0.776-0.053,1.017-0.154c0.087-0.036,0.147-0.073,0.193-0.106c-0.072,0-0.138,0.003-0.203,0.007
							c-0.119,0.008-0.234,0.011-0.341,0.011c-0.623,0-1.31-0.256-2.044-0.755c-0.713-0.483-1.436-1.076-2.146-1.764l-2.691-2.667
							l0.333-0.09c0.208-0.053,0.484-0.139,0.826-0.249c0.33-0.109,0.655-0.261,0.967-0.451c0.307-0.186,0.57-0.422,0.784-0.705
							c0.201-0.269,0.303-0.617,0.303-1.036c0-0.438-0.121-0.807-0.367-1.118c-0.255-0.323-0.604-0.593-1.035-0.804
							c-0.443-0.22-0.976-0.387-1.582-0.493c-0.614-0.111-1.267-0.171-1.942-0.171h-2.794c0,0.003,0,0.003,0.002,0.006
							c0.082,0.115,0.146,0.244,0.199,0.389c0.048,0.145,0.083,0.317,0.104,0.515c0.016,0.19,0.026,0.435,0.026,0.72v7.29
							c0,0.283-0.01,0.525-0.026,0.718c-0.021,0.199-0.056,0.371-0.104,0.514c-0.053,0.147-0.118,0.278-0.199,0.392
							c-0.002,0.004-0.002,0.004-0.002,0.004h1.607c-0.003,0-0.003-0.003-0.003-0.003c-0.084-0.116-0.151-0.248-0.202-0.393
							c-0.048-0.141-0.083-0.317-0.101-0.517c-0.021-0.186-0.027-0.42-0.027-0.715V77.695z M32.409,77.559h-1.89v-4.854h0.191
							c0.39,0,0.879,0.016,1.455,0.043c0.586,0.029,1.154,0.118,1.685,0.26c0.545,0.151,1.02,0.388,1.409,0.705
							c0.418,0.344,0.63,0.828,0.63,1.441c0,0.654-0.286,1.226-0.852,1.703C34.48,77.323,33.597,77.559,32.409,77.559z
							 M30.901,77.167h1.507c1.098,0,1.898-0.208,2.384-0.616c0.48-0.403,0.711-0.859,0.711-1.397c0-0.493-0.158-0.862-0.485-1.129
							c-0.348-0.287-0.773-0.503-1.268-0.634c-0.505-0.135-1.046-0.223-1.605-0.247c-0.478-0.027-0.896-0.04-1.245-0.041V77.167z"/>
					</g>
					<g>
						<linearGradient id="SVGID_15_" gradientUnits="userSpaceOnUse" x1="39.1206" y1="77.6819" x2="52.8345" y2="77.6819">
							<stop  offset="0" style="stop-color:#324C8F"/>
							<stop  offset="0.399" style="stop-color:#327FBB"/>
							<stop  offset="0.7291" style="stop-color:#317FBC"/>
							<stop  offset="1" style="stop-color:#2B4991"/>
						</linearGradient>
						<path fill="url(#SVGID_15_)" d="M51.455,81.887c0.124,0.213,0.23,0.383,0.318,0.509c0.089,0.129,0.181,0.238,0.281,0.331
							c0.096,0.091,0.202,0.181,0.319,0.265c0.115,0.084,0.269,0.19,0.462,0.318h-2.945c0.106-0.109,0.205-0.223,0.293-0.329
							c0.088-0.104,0.132-0.221,0.132-0.351c0-0.098-0.022-0.195-0.067-0.296c-0.042-0.101-0.092-0.198-0.145-0.298l-1.884-3.507
							h-4.828l-1.857,3.463c-0.07,0.144-0.137,0.305-0.198,0.479c-0.063,0.179-0.095,0.304-0.095,0.373
							c0,0.085,0.032,0.166,0.095,0.243c0.061,0.079,0.116,0.151,0.17,0.223h-2.386c0.281-0.139,0.564-0.303,0.846-0.488
							c0.284-0.183,0.55-0.502,0.799-0.955l5.411-9.813L51.455,81.887z M45.884,74.24l-2.175,3.758h4.245L45.884,74.24z"/>
						<linearGradient id="SVGID_16_" gradientUnits="userSpaceOnUse" x1="38.2856" y1="77.5793" x2="53.4917" y2="77.5793">
							<stop  offset="0" style="stop-color:#324C8F"/>
							<stop  offset="0.399" style="stop-color:#327FBB"/>
							<stop  offset="0.7291" style="stop-color:#317FBC"/>
							<stop  offset="1" style="stop-color:#2B4991"/>
						</linearGradient>
						<path fill="url(#SVGID_16_)" d="M53.492,83.508h-4.055l0.315-0.335c0.105-0.111,0.2-0.219,0.286-0.32
							c0.059-0.071,0.085-0.142,0.085-0.223c0-0.068-0.016-0.141-0.047-0.213c-0.043-0.097-0.089-0.189-0.141-0.283l-1.829-3.405
							h-4.603l-1.802,3.362c-0.063,0.124-0.129,0.278-0.188,0.448c-0.076,0.221-0.08,0.293-0.08,0.305
							c0,0.037,0.016,0.075,0.049,0.121c0.065,0.077,0.121,0.151,0.175,0.224l0.241,0.319h-3.613l0.751-0.376
							c0.274-0.136,0.553-0.298,0.829-0.478c0.253-0.164,0.499-0.464,0.73-0.886l5.583-10.117l5.443,10.141
							c0.119,0.199,0.22,0.365,0.307,0.49c0.079,0.115,0.165,0.217,0.253,0.299c0.093,0.087,0.19,0.171,0.302,0.251
							c0.111,0.08,0.262,0.186,0.454,0.312L53.492,83.508z M50.324,83.114h1.883c-0.103-0.078-0.199-0.159-0.286-0.241
							c-0.105-0.102-0.207-0.223-0.304-0.362c-0.091-0.129-0.199-0.302-0.327-0.521l-5.116-9.532l-5.244,9.507
							c-0.266,0.486-0.547,0.823-0.859,1.023c-0.065,0.043-0.13,0.085-0.196,0.126h1.245c-0.048-0.088-0.068-0.176-0.068-0.27
							c0-0.099,0.031-0.232,0.104-0.438c0.063-0.188,0.134-0.355,0.207-0.504l1.916-3.566h5.055l1.939,3.604
							c0.053,0.105,0.105,0.211,0.153,0.313c0.053,0.125,0.083,0.254,0.083,0.379c0,0.176-0.06,0.336-0.179,0.48
							C50.327,83.114,50.324,83.114,50.324,83.114z M48.282,78.197h-4.912l2.517-4.35L48.282,78.197z M44.045,77.805h3.578
							l-1.744-3.174L44.045,77.805z"/>
					</g>
					<g>
						<linearGradient id="SVGID_17_" gradientUnits="userSpaceOnUse" x1="50.7656" y1="78.0208" x2="64.8003" y2="78.0208">
							<stop  offset="0" style="stop-color:#324C8F"/>
							<stop  offset="0.399" style="stop-color:#327FBB"/>
							<stop  offset="0.7291" style="stop-color:#317FBC"/>
							<stop  offset="1" style="stop-color:#2B4991"/>
						</linearGradient>
						<path fill="url(#SVGID_17_)" d="M64.428,83.671l-10.372-9.006v6.943c0,0.27,0,0.485,0,0.639c0,0.158,0.012,0.287,0.04,0.394
							c0.026,0.106,0.065,0.21,0.118,0.31c0.053,0.098,0.125,0.221,0.212,0.359h-1.591c0.106-0.139,0.186-0.262,0.238-0.359
							c0.054-0.1,0.094-0.203,0.12-0.31c0.026-0.106,0.045-0.235,0.054-0.394c0.007-0.153,0.012-0.369,0.012-0.639v-7.666
							c-0.212-0.214-0.403-0.39-0.571-0.532c-0.171-0.14-0.338-0.267-0.517-0.38c-0.179-0.115-0.376-0.22-0.599-0.32
							c-0.22-0.098-0.489-0.212-0.807-0.339h2.599l10.268,8.92V74.07c0-0.27-0.006-0.479-0.013-0.639
							c-0.009-0.152-0.027-0.285-0.053-0.392c-0.027-0.106-0.067-0.206-0.118-0.308c-0.056-0.1-0.134-0.22-0.24-0.36H64.8
							c-0.089,0.141-0.161,0.261-0.213,0.36c-0.054,0.102-0.094,0.201-0.12,0.308c-0.028,0.106-0.04,0.239-0.04,0.392
							c0,0.159,0,0.369,0,0.639V83.671z"/>
						<linearGradient id="SVGID_18_" gradientUnits="userSpaceOnUse" x1="49.7393" y1="78.134" x2="65.1499" y2="78.134">
							<stop  offset="0" style="stop-color:#324C8F"/>
							<stop  offset="0.399" style="stop-color:#327FBB"/>
							<stop  offset="0.7291" style="stop-color:#317FBC"/>
							<stop  offset="1" style="stop-color:#2B4991"/>
						</linearGradient>
						<path fill="url(#SVGID_18_)" d="M64.62,84.096l-10.373-9.008v7.159c0,0.143,0.009,0.258,0.034,0.346
							c0.022,0.087,0.058,0.178,0.102,0.263c0.053,0.095,0.118,0.211,0.203,0.347l0.194,0.306h-2.335l0.241-0.319
							c0.095-0.128,0.17-0.24,0.22-0.336c0.044-0.082,0.08-0.173,0.103-0.26c0.022-0.093,0.04-0.212,0.045-0.357
							c0.011-0.151,0.016-0.361,0.016-0.627v-7.58c-0.186-0.184-0.352-0.335-0.501-0.464c-0.164-0.138-0.332-0.263-0.495-0.368
							c-0.168-0.107-0.363-0.209-0.574-0.306c-0.218-0.099-0.487-0.209-0.802-0.335l-0.957-0.384h3.696l10.005,8.694V74.07
							c0-0.261-0.004-0.473-0.013-0.627c-0.007-0.141-0.025-0.261-0.048-0.354c-0.021-0.088-0.055-0.177-0.1-0.263
							c-0.051-0.092-0.126-0.201-0.224-0.336l-0.236-0.318h2.331l-0.19,0.309c-0.087,0.136-0.153,0.251-0.203,0.347
							c-0.046,0.083-0.08,0.173-0.105,0.262c-0.021,0.09-0.032,0.205-0.032,0.342V84.096z M53.864,74.241l10.375,9.006v-9.816
							c0-0.173,0.013-0.316,0.042-0.441c0.032-0.12,0.078-0.242,0.137-0.353c0.012-0.023,0.025-0.045,0.039-0.069h-0.882
							c0.015,0.024,0.028,0.046,0.04,0.069c0.06,0.117,0.109,0.235,0.136,0.353c0.03,0.122,0.048,0.263,0.061,0.432
							c0.008,0.157,0.012,0.375,0.012,0.648v7.647l-10.531-9.149h-1.558c0.197,0.094,0.378,0.191,0.538,0.293
							c0.178,0.115,0.358,0.249,0.536,0.397c0.178,0.15,0.375,0.334,0.583,0.542l0.057,0.059v7.75c0,0.276-0.005,0.493-0.013,0.652
							c-0.009,0.17-0.026,0.311-0.058,0.428c-0.031,0.124-0.076,0.242-0.137,0.355c-0.011,0.022-0.023,0.045-0.038,0.069h0.879
							c-0.011-0.024-0.023-0.047-0.036-0.069c-0.062-0.11-0.106-0.231-0.137-0.355c-0.029-0.121-0.046-0.268-0.046-0.441V74.241z"/>
					</g>
					<g>
						<linearGradient id="SVGID_19_" gradientUnits="userSpaceOnUse" x1="65.2773" y1="77.8411" x2="77.2676" y2="77.8411">
							<stop  offset="0" style="stop-color:#324C8F"/>
							<stop  offset="0.399" style="stop-color:#327FBB"/>
							<stop  offset="0.7291" style="stop-color:#317FBC"/>
							<stop  offset="1" style="stop-color:#2B4991"/>
						</linearGradient>
						<path fill="url(#SVGID_19_)" d="M67.586,72.371c0.528,0,1.135,0.024,1.815,0.075c0.682,0.05,1.384,0.144,2.109,0.285
							c0.726,0.142,1.43,0.341,2.109,0.596c0.682,0.256,1.295,0.593,1.844,1.019c0.548,0.426,0.988,0.942,1.313,1.551
							c0.327,0.609,0.491,1.331,0.491,2.167c0,1.033-0.237,1.888-0.717,2.569c-0.478,0.679-1.126,1.217-1.95,1.614
							c-0.822,0.398-1.773,0.676-2.85,0.828c-1.08,0.156-2.212,0.234-3.397,0.234h-3.076c0.158-0.099,0.295-0.205,0.411-0.318
							c0.116-0.112,0.211-0.246,0.292-0.404c0.081-0.152,0.141-0.354,0.186-0.595c0.042-0.239,0.065-0.535,0.065-0.891v-6.5
							c0-0.711-0.082-1.207-0.25-1.499c-0.17-0.29-0.402-0.532-0.703-0.731H67.586z M67.559,80.615c0,0.438,0.01,0.793,0.027,1.069
							c0.015,0.275,0.078,0.501,0.184,0.661c0.106,0.161,0.28,0.275,0.517,0.342c0.238,0.061,0.579,0.093,1.022,0.093
							c1.327,0,2.41-0.149,3.25-0.445c0.837-0.298,1.499-0.674,1.976-1.125c0.477-0.454,0.811-0.946,0.996-1.479
							c0.186-0.531,0.279-1.022,0.279-1.478c0-0.151-0.015-0.391-0.041-0.711c-0.026-0.319-0.115-0.676-0.263-1.07
							c-0.153-0.396-0.397-0.809-0.732-1.231c-0.335-0.429-0.808-0.811-1.418-1.159c-0.609-0.347-1.384-0.632-2.319-0.847
							c-0.941-0.22-2.096-0.333-3.477-0.333V80.615z"/>
						<linearGradient id="SVGID_20_" gradientUnits="userSpaceOnUse" x1="64.5874" y1="77.8401" x2="77.46" y2="77.8401">
							<stop  offset="0" style="stop-color:#324C8F"/>
							<stop  offset="0.399" style="stop-color:#327FBB"/>
							<stop  offset="0.7291" style="stop-color:#317FBC"/>
							<stop  offset="1" style="stop-color:#2B4991"/>
						</linearGradient>
						<path fill="url(#SVGID_20_)" d="M68.354,83.508h-3.766l0.59-0.368c0.144-0.089,0.271-0.188,0.376-0.292
							c0.104-0.1,0.186-0.214,0.256-0.354c0.07-0.133,0.127-0.314,0.168-0.536c0.041-0.23,0.062-0.519,0.062-0.855v-6.5
							c0-0.669-0.077-1.139-0.225-1.396c-0.156-0.266-0.366-0.486-0.642-0.668l-0.55-0.366h2.962c0.526,0,1.144,0.029,1.829,0.077
							c0.684,0.05,1.401,0.146,2.13,0.289c0.732,0.144,1.453,0.345,2.141,0.605c0.695,0.258,1.334,0.61,1.894,1.046
							c0.567,0.437,1.026,0.984,1.364,1.612c0.342,0.636,0.517,1.398,0.517,2.262c0,1.07-0.254,1.975-0.754,2.685
							c-0.493,0.708-1.176,1.271-2.025,1.681c-0.836,0.403-1.814,0.687-2.904,0.845C70.695,83.429,69.545,83.508,68.354,83.508z
							 M65.842,83.114h2.512c1.173,0,2.304-0.076,3.368-0.232c1.055-0.149,1.997-0.426,2.799-0.813
							c0.788-0.378,1.421-0.903,1.875-1.551c0.451-0.644,0.68-1.47,0.68-2.454c0-0.797-0.156-1.492-0.467-2.072
							c-0.311-0.579-0.735-1.08-1.26-1.486c-0.529-0.412-1.134-0.746-1.794-0.99c-0.668-0.252-1.372-0.453-2.078-0.59
							c-0.717-0.139-1.418-0.234-2.089-0.281c-0.678-0.051-1.283-0.076-1.802-0.076h-1.768c0.127,0.134,0.235,0.277,0.325,0.434
							c0.188,0.328,0.279,0.849,0.279,1.601v6.5c0,0.358-0.023,0.672-0.069,0.928c-0.049,0.268-0.116,0.477-0.204,0.648
							C66.066,82.844,65.962,82.988,65.842,83.114z M69.309,82.976c-0.46,0-0.813-0.031-1.069-0.1
							c-0.285-0.077-0.498-0.22-0.627-0.423c-0.128-0.189-0.201-0.446-0.218-0.757c-0.019-0.275-0.029-0.629-0.029-1.082v-7.91
							h0.193c1.386,0,2.571,0.113,3.518,0.335c0.949,0.224,1.747,0.514,2.37,0.867c0.63,0.36,1.126,0.766,1.476,1.207
							c0.349,0.44,0.605,0.872,0.759,1.286c0.156,0.412,0.25,0.792,0.279,1.126C75.987,77.853,76,78.097,76,78.253
							c0,0.476-0.097,0.994-0.29,1.547c-0.193,0.559-0.547,1.082-1.044,1.555c-0.497,0.467-1.183,0.858-2.045,1.166
							C71.764,82.822,70.648,82.976,69.309,82.976z M67.751,73.103v7.512c0,0.441,0.009,0.79,0.024,1.06
							c0.018,0.241,0.066,0.428,0.154,0.56c0.079,0.122,0.215,0.211,0.405,0.258c0.222,0.061,0.552,0.091,0.975,0.091
							c1.298,0,2.37-0.147,3.189-0.438c0.809-0.286,1.455-0.648,1.908-1.081c0.451-0.43,0.77-0.9,0.943-1.4
							c0.178-0.506,0.269-0.981,0.269-1.409c0-0.151-0.013-0.381-0.041-0.694c-0.024-0.299-0.108-0.639-0.252-1.017
							c-0.143-0.376-0.379-0.772-0.701-1.179c-0.316-0.404-0.777-0.779-1.363-1.11c-0.588-0.335-1.355-0.613-2.272-0.829
							C70.116,73.218,69.026,73.11,67.751,73.103z"/>
					</g>
				</g>
			</g>
		</g>
	</g>
	<linearGradient id="SVGID_21_" gradientUnits="userSpaceOnUse" x1="12.0269" y1="88.7043" x2="149.2954" y2="88.7043">
		<stop  offset="0" style="stop-color:#324C8F"/>
		<stop  offset="0.399" style="stop-color:#327FBB"/>
		<stop  offset="0.7291" style="stop-color:#317FBC"/>
		<stop  offset="1" style="stop-color:#2B4991"/>
	</linearGradient>
	<rect x="12.027" y="88.172" fill="url(#SVGID_21_)" width="137.269" height="1.063"/>
	<g>
		
			<text transform="matrix(1.0834 0 0 1 32.6323 100.3391)" fill="#141A46" stroke="#141A46" stroke-width="0.2656" stroke-miterlimit="10" font-family="'Montserrat-Regular'" font-size="8.8234">travel &amp; tours</text>
	</g>
	<g>
		<g>
			<g>
				<g>
					<g>
						<g>
							<defs>
								<path id="SVGID_22_" d="M94.056,45.368C93.188,53.007,86.184,58.52,78.4,57.684c-7.782-0.835-13.391-7.702-12.53-15.336
									c0.862-7.637,7.872-13.146,15.649-12.316C89.303,30.865,94.913,37.732,94.056,45.368z"/>
							</defs>
							<clipPath id="SVGID_23_">
								<use xlink:href="#SVGID_22_"  overflow="visible"/>
							</clipPath>
							<path opacity="0.15" clip-path="url(#SVGID_23_)" fill="#A4A3A3" enable-background="new    " d="M88.534,34.717
								c-0.099-0.136-0.148-0.232-0.291-0.312c0.313-0.104-0.254-0.222-0.285-0.233c0.057,0.023,0.084,0.072,0.115,0.124
								c-0.158,0.037-0.445-0.042-0.625-0.072c0-0.018-0.002-0.047,0-0.065c-0.186-0.112-0.434-0.104-0.664-0.13
								c-0.221-0.024-0.449-0.1-0.648-0.104c0,0.035-0.025,0.087-0.021,0.124c-0.117-0.01-0.429-0.03-0.414-0.171
								c0.075,0,0.149,0.015,0.215,0.02c0.018-0.026,0.018-0.06,0.018-0.089c-0.1-0.003-0.169-0.1-0.251-0.139
								c-0.099-0.05-0.238-0.07-0.347-0.072c-0.019,0.103-0.037,0.206-0.037,0.309c0.037-0.006,0.078,0.02,0.105,0.018
								c0.002,0.026,0,0.059-0.01,0.081c-0.027,0.008-0.077,0-0.102-0.007c-0.019-0.143-0.222-0.178-0.354-0.166
								c-0.05,0.007-0.092,0.057-0.139,0.059c-0.082,0.008-0.156-0.025-0.23-0.005c-0.143,0.038-0.211,0.14-0.39,0.072
								c-0.13-0.058-0.188-0.119-0.361-0.134c0.034,0.05,0.052,0.11,0.052,0.171c-0.216,0.005-0.361-0.135-0.359-0.353
								c-0.02-0.011-0.041-0.005-0.071-0.013c0-0.015,0.019-0.052,0.019-0.067c0.26,0.138,0.543,0.169,0.856,0.214
								c0.092,0.019,0.367,0.098,0.419-0.008c0.08-0.137-0.21-0.229-0.285-0.271c-0.521-0.298-1.178-0.446-1.763-0.57
								c0.063-0.021,0.063-0.05,0.103-0.084c-0.343-0.058-0.678-0.127-1.015-0.146c-0.174-0.014-0.353-0.042-0.528-0.061
								c-0.181-0.018-0.285,0.013-0.453,0.024c-0.322,0.037-0.662,0-0.992,0.01c-0.146,0.008-0.957,0.008-0.957,0.226
								c0.151,0.022,0.275-0.02,0.419,0.009c-0.106,0.087-0.245,0.118-0.374,0.132c-0.077,0.007-0.121-0.022-0.193,0
								c-0.057,0.017-0.166,0.118-0.226,0.152c-0.122,0.072-0.216,0.164-0.345,0.208c-0.139,0.048-0.268,0.027-0.401,0.056
								c-0.129,0.023-0.275,0.084-0.399,0.124c-0.119,0.029-0.313,0.047-0.411,0.102c-0.149,0.084-0.149,0.188-0.124,0.327
								c0.012,0.055,0.062,0.087,0.069,0.154c0.015,0.065-0.021,0.157-0.025,0.228c0.275,0.035,0.565,0.139,0.826,0.042
								c0.126-0.044,0.226-0.121,0.374-0.074c0.171,0.045,0.151,0.149,0.216,0.301c0.169,0.356,0.377,0.216,0.701,0.188
								c0.154-0.01,0.278,0.08,0.385-0.076c0.106-0.148-0.087-0.261,0.069-0.345c0.102-0.055,0.213,0.024,0.322-0.032
								c0.079-0.045,0.198-0.224,0.221-0.311c0.013-0.032-0.454-0.024-0.327-0.247c0.102-0.161,0.485-0.048,0.627-0.07
								c0.216-0.034,0.263-0.198,0.455-0.287c0.188-0.102,0.502-0.119,0.719-0.018l-0.004,0.05
								c-0.291,0.094-0.839,0.067-0.991,0.354c-0.164,0.309,0.303,0.435,0.558,0.438c-0.103,0.069-0.322,0.089-0.322,0.24
								c0.213,0.089,0.377,0.003,0.32,0.295c-0.142-0.007-0.229-0.134-0.359-0.166c-0.209-0.05-0.243,0.084-0.354,0.224
								c-0.167,0.218-0.37,0.258-0.647,0.229c-0.298-0.034-0.548,0-0.833-0.019c-0.266-0.017-0.588-0.121-0.848-0.076
								c0.074-0.063,0.31,0.016,0.359-0.146c-0.109-0.04-0.216-0.055-0.335-0.072c0.005-0.007,0.008-0.055,0.01-0.068
								c0.025,0,0.037-0.006,0.047-0.016c-0.146-0.003-0.081-0.116-0.032-0.188c-0.173-0.145-0.379,0.034-0.57,0.055
								c-0.062,0.094-0.052,0.163-0.026,0.248c0.01,0.055,0.15,0.108,0.049,0.221c-0.042,0.052-0.268,0.039-0.332,0.052
								c-0.116,0.016-0.218,0.067-0.332,0.088c-0.216,0.045-0.382,0.031-0.541,0.226c-0.079,0.094-0.044,0.156-0.188,0.198
								c-0.082,0.023-0.231,0.003-0.315-0.016c0.055-0.06,0.176-0.179,0.174-0.271c-0.037,0.002-0.079-0.019-0.117-0.017
								c0.08-0.065-0.044-0.036-0.079-0.078c-0.024-0.024-0.071-0.024-0.097-0.053c-0.044-0.05,0.013-0.134-0.024-0.169
								c-0.045-0.042-0.144-0.026-0.208-0.062c-0.072-0.05-0.018-0.154-0.156-0.146c0-0.021,0.007-0.049,0-0.068
								c-0.043-0.013-0.067-0.051-0.119-0.056c0-0.023,0.007-0.044,0.01-0.068c0.047,0.016,0.116,0,0.164,0.013
								c0.017-0.042,0.029-0.116,0.017-0.161c-0.121,0-0.3-0.057-0.203-0.206c-0.124-0.065-0.511-0.071-0.528,0.104
								c-0.141,0.018-0.317-0.188-0.292,0.115c0.042,0.019,0.015,0.019,0.034,0.042c0.022,0.004,0.053,0.012,0.069,0.012
								c-0.024,0.091,0.011,0.178,0.048,0.239c-0.01,0-0.022,0.006-0.027,0.006c0,0.188,0.186-0.016,0.255-0.009
								c-0.01,0.122-0.19,0.061-0.188,0.217c0.035-0.006,0.077,0.018,0.106,0.018c-0.015,0.037,0.003,0.099-0.01,0.139
								c0.146,0.053,0.216-0.087,0.327-0.068c-0.062,0.06-0.15,0.071-0.218,0.119c-0.062,0.045-0.087,0.144-0.161,0.186
								c-0.064,0.037-0.211-0.02-0.198,0.111c0.013,0.095,0.184,0.074,0.271,0.085c-0.1,0.031-0.216,0.02-0.275,0.113
								c-0.082,0.124-0.008,0.15,0.126,0.137c0.082-0.011,0.166-0.106,0.256-0.126c0.146-0.04,0.245,0.01,0.396,0.026
								c0.067,0.002,0.677-0.127,0.461,0.098c-0.032,0.023-0.134-0.025-0.168-0.016c-0.063,0.021-0.05,0.092-0.104,0.103
								c-0.077,0.012-0.206-0.063-0.313-0.067c-0.024,0.067-0.02,0.132,0.008,0.196c-0.107-0.006-0.226-0.035-0.327-0.027
								c-0.114,0-0.219,0.049-0.333,0.021c-0.02,0.035-0.034,0.058-0.032,0.103c0.022,0.01,0.037,0,0.053,0.01
								c-0.021,0.227,0.265,0.121,0.382,0.208c0.042,0.035,0.052,0.124,0.092,0.177c0.049,0.063,0.183,0.124,0.183,0.203
								c0.008,0.113-0.223,0.274-0.314,0.303c-0.166,0.047-0.295,0.02-0.451-0.019c-0.38-0.075-0.848-0.161-1.039,0.225
								c-0.129,0.26-0.314,0.685-0.245,0.994c0.074,0.321,0.553-0.059,0.556,0.316c0.021,0.008,0.049,0.01,0.071,0.016
								c-0.002,0.026-0.01,0.058-0.015,0.084c-0.018,0-0.042,0-0.063,0c-0.039,0.242-0.349,0.372-0.527,0.477
								c-0.145,0.074-0.253,0.174-0.359,0.282c-0.132,0.122-0.114,0.169-0.177,0.332c-0.094,0.269-0.57,0.474-0.086,0.675
								c0.153,0.062,0.352,0.121,0.516,0.146c0.158,0.027,0.183,0.014,0.389-0.034c0.984-0.21,2.053-0.385,3.063-0.337
								c0.354,0.018,0.843,0.221,1.162,0.01c0.184-0.124,0.392-0.399,0.377-0.638c-0.335-0.045-0.474-0.158-0.694-0.361
								c-0.002,0.005,0.01-0.047,0.01-0.047c0.129-0.011,0.117-0.229,0.122-0.344c-0.015-0.007-0.032-0.026-0.042-0.036
								c0.104-0.008,0.163-0.081,0.148-0.188c-0.193-0.012-0.211-0.155-0.359-0.193c-0.114-0.021-0.337,0.045-0.477,0.045
								c-0.168-0.002-0.292,0.022-0.443,0.042c-0.153,0.022-0.29-0.026-0.434-0.044c-0.657-0.066-1.226,0.44-1.899,0.332
								c0.022-0.092-0.04-0.144-0.137-0.144c0.013-0.092,0.109-0.067,0.193-0.058c0.08-0.106,0.311-0.021,0.441-0.063
								c0.124-0.04,0.278-0.145,0.392-0.216c0.261-0.169,0.216-0.523,0.467-0.657c0.119-0.063,0.255-0.121,0.384-0.156
								c0.069-0.021,0.151,0.019,0.198-0.037c0.06-0.052,0.01-0.16,0.06-0.216c0.176-0.188,0.596,0.047,0.809-0.079
								c0.168-0.105,0.352-0.244,0.603-0.137c0.186,0.085,0.26,0.362,0.411,0.504c0.206,0.2,0.466,0.104,0.685,0.242
								c0.148,0.097,0.399,0.393,0.337,0.568c-0.084-0.022-0.137,0.01-0.124,0.102c0.298,0.045,0.305-0.05,0.409-0.271
								c0.042-0.082-0.01-0.153,0.148-0.135c0.117,0.016,0.1,0.138,0.236,0.114c0.039-0.164-0.013-0.211-0.146-0.266
								c-0.117-0.053-0.238-0.129-0.353-0.158c-0.032-0.196-0.295-0.129-0.426-0.221c-0.069-0.056-0.06-0.135-0.109-0.185
								c-0.037-0.047-0.124-0.11-0.181-0.156c-0.077-0.05-0.193-0.104-0.174-0.195c0.01-0.055,0.139-0.124,0.188-0.126
								c0.166-0.016,0.298,0.147,0.485,0.161c-0.052,0.408,0.683,0.396,0.855,0.553c0.156,0.142,0.042,0.359,0.085,0.53
								c0.049,0.158,0.218,0.253,0.347,0.319c-0.008,0.007-0.01,0.019-0.015,0.024c-0.025,0.005-0.04-0.002-0.055,0
								c-0.067,0.353,0.045,0.593,0.419,0.615c0.052-0.103,0.109-0.364,0.02-0.454c0.109,0.013,0.159,0.108,0.283,0.1
								c0.018-0.024,0.032-0.052,0.037-0.085c0.064-0.023,0.045-0.023,0.06-0.086c-0.171-0.092-0.399-0.229-0.343-0.446
								c0.102,0.047,0.283,0.182,0.285-0.042c0.177,0.016,0.371-0.013,0.527,0.058c0.006,0.023,0.012,0.047,0.012,0.068
								c-0.039-0.013-0.094,0.003-0.127-0.008c-0.014,0.027-0.018,0.075-0.014,0.104c0.063,0.028,0.129,0.05,0.199,0.062
								c-0.005,0.008-0.007,0.05-0.007,0.05c-0.075,0.021-0.151,0.014-0.224,0c-0.024,0.135-0.061,0.243,0.049,0.338
								c0.261,0.224,0.412-0.127,0.631-0.2c0.162-0.061,0.24-0.061,0.377-0.161c0.07-0.045,0.223-0.154,0.223-0.227
								c-0.16-0.09-0.443-0.003-0.572-0.108c-0.179-0.145,0.039-0.33,0.129-0.438c0.063-0.085,0.1-0.102,0.179-0.156
								c0.04-0.024,0.08-0.021,0.127-0.052c0.04-0.024,0.028-0.098,0.062-0.135c0.159-0.141,0.428-0.104,0.625-0.074
								c-0.033,0.375,0.285,0.444,0.602,0.402c0.152-0.021,0.324-0.043,0.479-0.027c0.094,0.01,0.153,0.042,0.237,0.063
								c0.662,0.142,1.19-0.262,1.837-0.393c0.717-0.142,1.438-0.105,1.912-0.714c0.158-0.201,0.23-0.427,0.377-0.63
								c0.119-0.169,0.318-0.409,0.395-0.603C88.648,35.055,88.629,34.856,88.534,34.717z M82.045,34.481
								c-0.26,0.054-0.397,0.045-0.655-0.05c-0.077-0.025-0.253-0.044-0.101-0.121c0.063-0.028,0.25,0.027,0.32,0.032l-0.035-0.057
								C81.702,34.281,82.094,34.353,82.045,34.481z"/>
						</g>
						<g>
							<defs>
								<path id="SVGID_24_" d="M94.056,45.368C93.188,53.007,86.184,58.52,78.4,57.684c-7.782-0.835-13.391-7.702-12.53-15.336
									c0.862-7.637,7.872-13.146,15.649-12.316C89.303,30.865,94.913,37.732,94.056,45.368z"/>
							</defs>
							<clipPath id="SVGID_25_">
								<use xlink:href="#SVGID_24_"  overflow="visible"/>
							</clipPath>
							<path opacity="0.15" clip-path="url(#SVGID_25_)" fill="#A4A3A3" enable-background="new    " d="M76.991,37.596
								c-0.042-0.01-0.097-0.01-0.137-0.015c-0.032,0.147-0.047,0.389-0.005,0.54c0.032,0.013,0.153-0.032,0.174-0.047
								c0.06-0.048,0.082-0.063,0.092-0.172c0.015-0.003,0.024,0.003,0.039,0c0.013-0.031,0.04-0.085,0.04-0.118
								c-0.003-0.074-0.04-0.059-0.055-0.119c-0.018-0.079,0.015-0.171,0.005-0.262c0.079-0.02,0.074-0.122,0.06-0.186
								c-0.024-0.008-0.06-0.013-0.082-0.008c-0.007,0.011-0.005,0.021-0.007,0.03c-0.05,0-0.1-0.004-0.151-0.011
								c-0.015,0.042-0.02,0.095-0.018,0.135c0.02,0,0.045,0.01,0.069,0.01c-0.005,0.079-0.013,0.155-0.024,0.234"/>
						</g>
						<g>
							<defs>
								<path id="SVGID_26_" d="M94.056,45.368C93.188,53.007,86.184,58.52,78.4,57.684c-7.782-0.835-13.391-7.702-12.53-15.336
									c0.862-7.637,7.872-13.146,15.649-12.316C89.303,30.865,94.913,37.732,94.056,45.368z"/>
							</defs>
							<clipPath id="SVGID_27_">
								<use xlink:href="#SVGID_26_"  overflow="visible"/>
							</clipPath>
							<path opacity="0.15" clip-path="url(#SVGID_27_)" fill="#A4A3A3" enable-background="new    " d="M75.603,37.767
								c-0.002,0.019-0.002,0.032-0.01,0.052c-0.042-0.005-0.092-0.002-0.137-0.005c0.016,0.119,0.095,0.114,0.214,0.127
								c0.002-0.06,0.012-0.115,0.017-0.179c-0.017-0.002-0.047-0.01-0.066-0.01"/>
						</g>
						<g>
							<defs>
								<path id="SVGID_28_" d="M94.056,45.368C93.188,53.007,86.184,58.52,78.4,57.684c-7.782-0.835-13.391-7.702-12.53-15.336
									c0.862-7.637,7.872-13.146,15.649-12.316C89.303,30.865,94.913,37.732,94.056,45.368z"/>
							</defs>
							<clipPath id="SVGID_29_">
								<use xlink:href="#SVGID_28_"  overflow="visible"/>
							</clipPath>
							<path opacity="0.15" clip-path="url(#SVGID_29_)" fill="#A4A2A2" enable-background="new    " d="M78.35,38.394
								c-0.211-0.021-0.429-0.054-0.654-0.068c-0.074,0.274,0.275,0.1,0.324,0.301c0.075-0.021,0.092,0.025,0.14,0.037
								c0.057,0.012,0.099,0.017,0.161,0.02c0.01-0.077,0.021-0.164,0.029-0.245"/>
						</g>
						<g>
							<defs>
								<path id="SVGID_30_" d="M94.056,45.368C93.188,53.007,86.184,58.52,78.4,57.684c-7.782-0.835-13.391-7.702-12.53-15.336
									c0.862-7.637,7.872-13.146,15.649-12.316C89.303,30.865,94.913,37.732,94.056,45.368z"/>
							</defs>
							<clipPath id="SVGID_31_">
								<use xlink:href="#SVGID_30_"  overflow="visible"/>
							</clipPath>
							<path opacity="0.15" clip-path="url(#SVGID_31_)" fill="#A4A2A2" enable-background="new    " d="M73.316,37.33
								c0.233,0.024,0.035-0.282-0.097-0.275C73.036,37.061,73.213,37.32,73.316,37.33z"/>
						</g>
						<g>
							<defs>
								<path id="SVGID_32_" d="M94.056,45.368C93.188,53.007,86.184,58.52,78.4,57.684c-7.782-0.835-13.391-7.702-12.53-15.336
									c0.862-7.637,7.872-13.146,15.649-12.316C89.303,30.865,94.913,37.732,94.056,45.368z"/>
							</defs>
							<clipPath id="SVGID_33_">
								<use xlink:href="#SVGID_32_"  overflow="visible"/>
							</clipPath>
							<path opacity="0.15" clip-path="url(#SVGID_33_)" fill="#A4A2A2" enable-background="new    " d="M81.29,31.744
								c0.103,0.008,0.219,0.006,0.285,0.08c-0.074,0-0.104,0.021-0.174,0.026c-0.064,0.005-0.119-0.013-0.181-0.003
								c-0.021,0.119-0.148,0.084-0.218,0.045c-0.019-0.008,0.015-0.055-0.008-0.072c-0.031-0.013-0.07-0.007-0.098-0.013
								c-0.052-0.005-0.105,0.017-0.164,0.008c0.016-0.033,0-0.082,0.014-0.115c-0.204-0.032-0.323-0.016-0.487,0.065
								c-0.141,0.075-0.344,0.146-0.518,0.129c-0.191-0.02-0.372-0.141-0.516-0.221c-0.129-0.076-0.354-0.063-0.519-0.086
								c-0.005-0.021-0.005-0.07,0-0.092c0.32-0.104,0.625-0.09,0.989-0.069c0.005-0.011,0.003-0.025,0.008-0.035
								c0.116-0.047,0.29-0.02,0.424-0.013c0.114,0.008,0.359,0.087,0.441,0.018c-0.01-0.015-0.021-0.034-0.025-0.052
								c0.199-0.013,0.353,0.099,0.556,0.111c0.045-0.04,0.137-0.035,0.206-0.016c0,0.013,0,0.021,0.005,0.034
								c0.18,0.03,0.667,0,0.759,0.179c-0.095-0.023-0.151,0.019-0.235,0.035c-0.074,0.016-0.166,0.011-0.271,0
								c-0.164-0.021-0.472-0.092-0.606-0.024c0.104,0.058,0.252,0.021,0.379,0.026c-0.01,0.016-0.012,0.037-0.024,0.053"/>
						</g>
						<g>
							<defs>
								<path id="SVGID_34_" d="M94.056,45.368C93.188,53.007,86.184,58.52,78.4,57.684c-7.782-0.835-13.391-7.702-12.53-15.336
									c0.862-7.637,7.872-13.146,15.649-12.316C89.303,30.865,94.913,37.732,94.056,45.368z"/>
							</defs>
							<clipPath id="SVGID_35_">
								<use xlink:href="#SVGID_34_"  overflow="visible"/>
							</clipPath>
							<path opacity="0.15" clip-path="url(#SVGID_35_)" fill="#A4A2A2" enable-background="new    " d="M78.067,34.789
								c0.064-0.072,0.302-0.035,0.242,0.1c-0.034,0.094-0.263,0.108-0.354,0.084c-0.002-0.03,0.013-0.037,0.021-0.052"/>
						</g>
						<g>
							<defs>
								<path id="SVGID_36_" d="M94.056,45.368C93.188,53.007,86.184,58.52,78.4,57.684c-7.782-0.835-13.391-7.702-12.53-15.336
									c0.862-7.637,7.872-13.146,15.649-12.316C89.303,30.865,94.913,37.732,94.056,45.368z"/>
							</defs>
							<clipPath id="SVGID_37_">
								<use xlink:href="#SVGID_36_"  overflow="visible"/>
							</clipPath>
							<path opacity="0.15" clip-path="url(#SVGID_37_)" fill="#A4A2A2" enable-background="new    " d="M86.293,33.823
								c-0.047,0.008-0.104,0.01-0.153-0.004c-0.005-0.023,0-0.06,0.005-0.081c0.045,0.008,0.089,0,0.124,0.021
								c-0.003-0.015-0.003-0.037-0.009-0.052c0.025-0.002,0.064,0.003,0.085,0.008c-0.003,0.018,0,0.037,0,0.052
								c0.063,0.01,0.127-0.008,0.194,0.016c0.02,0.016,0.041,0.055,0.062,0.071c-0.009,0.005-0.035,0.011-0.058,0.011
								c0,0.02-0.004,0.045-0.01,0.063c-0.072-0.002-0.199,0.015-0.199-0.074c-0.039-0.005-0.084-0.018-0.112-0.015"/>
						</g>
						<g>
							<defs>
								<path id="SVGID_38_" d="M94.056,45.368C93.188,53.007,86.184,58.52,78.4,57.684c-7.782-0.835-13.391-7.702-12.53-15.336
									c0.862-7.637,7.872-13.146,15.649-12.316C89.303,30.865,94.913,37.732,94.056,45.368z"/>
							</defs>
							<clipPath id="SVGID_39_">
								<use xlink:href="#SVGID_38_"  overflow="visible"/>
							</clipPath>
							<path opacity="0.15" clip-path="url(#SVGID_39_)" fill="#A4A0A1" enable-background="new    " d="M87.815,34.08
								c-0.238-0.022-0.466-0.069-0.625-0.216c-0.098-0.082-0.176-0.077-0.29-0.119c-0.104-0.037-0.218-0.2-0.015-0.145
								c-0.006-0.015-0.006-0.057-0.016-0.079c0.153,0.013,0.287-0.021,0.441-0.024c0.02-0.042,0.029-0.084,0.037-0.131
								c0.037-0.004,0.097,0.005,0.131,0.015c-0.007,0.029,0.014,0.05,0.01,0.079c0.201,0.03,0.383,0.072,0.586,0.092
								c0.166,0.018,0.395,0.035,0.348,0.243c-0.193-0.002-0.889-0.272-0.891,0.074c0.178,0.079,0.23,0.124,0.338,0.288"/>
						</g>
						<g>
							<defs>
								<path id="SVGID_40_" d="M94.056,45.368C93.188,53.007,86.184,58.52,78.4,57.684c-7.782-0.835-13.391-7.702-12.53-15.336
									c0.862-7.637,7.872-13.146,15.649-12.316C89.303,30.865,94.913,37.732,94.056,45.368z"/>
							</defs>
							<clipPath id="SVGID_41_">
								<use xlink:href="#SVGID_40_"  overflow="visible"/>
							</clipPath>
							<path opacity="0.15" clip-path="url(#SVGID_41_)" fill="#A4A2A2" enable-background="new    " d="M86.563,32.531
								c-0.005,0.063-0.066,0.063-0.132,0.036c-0.037-0.115-0.397-0.063-0.519-0.081c0.008-0.018,0-0.045,0.008-0.063
								c-0.066-0.013-0.137-0.037-0.205-0.045c0.01-0.018,0-0.042,0.005-0.063c-0.144-0.01-0.306-0.047-0.446-0.066
								c-0.005-0.037-0.01-0.076-0.014-0.108c0.115,0.016,0.222,0.018,0.332,0.032c0.004,0.015-0.01,0.027,0,0.039
								c0.107,0.021,0.22,0.021,0.328,0.042c0,0.016,0.008,0.035,0,0.05c0.045,0,0.097,0.019,0.14,0.022
								c-0.003,0.015-0.003,0.029-0.003,0.047c0.143,0.021,0.277,0.021,0.419,0.035c-0.011,0.002-0.026-0.003-0.032-0.003
								c-0.013,0.024-0.01,0.055-0.013,0.076c0.048,0,0.092,0.003,0.134,0.009c-0.007,0.017-0.007,0.047-0.012,0.065"/>
						</g>
						<g>
							<defs>
								<path id="SVGID_42_" d="M94.056,45.368C93.188,53.007,86.184,58.52,78.4,57.684c-7.782-0.835-13.391-7.702-12.53-15.336
									c0.862-7.637,7.872-13.146,15.649-12.316C89.303,30.865,94.913,37.732,94.056,45.368z"/>
							</defs>
							<clipPath id="SVGID_43_">
								<use xlink:href="#SVGID_42_"  overflow="visible"/>
							</clipPath>
							<path opacity="0.15" clip-path="url(#SVGID_43_)" fill="#A49F9F" enable-background="new    " d="M87.646,33.062
								c-0.131-0.038-0.235-0.135-0.347-0.204c-0.109-0.068-0.24-0.102-0.332-0.199c0.125-0.054,0.31,0.073,0.418,0.139
								c0.07,0.04,0.41,0.161,0.238,0.25"/>
						</g>
						<g>
							<defs>
								<path id="SVGID_44_" d="M94.056,45.368C93.188,53.007,86.184,58.52,78.4,57.684c-7.782-0.835-13.391-7.702-12.53-15.336
									c0.862-7.637,7.872-13.146,15.649-12.316C89.303,30.865,94.913,37.732,94.056,45.368z"/>
							</defs>
							<clipPath id="SVGID_45_">
								<use xlink:href="#SVGID_44_"  overflow="visible"/>
							</clipPath>
							<path opacity="0.15" clip-path="url(#SVGID_45_)" fill="#A3A0A0" enable-background="new    " d="M72.283,33.545
								c-0.027,0.017-0.069,0.023-0.092,0.044c0,0.013,0,0.013,0.002,0c-0.106-0.126-0.221,0.04-0.345,0.032
								c0,0.035-0.024,0.077-0.017,0.108c-0.253,0.063,0.168,0.213,0.25,0.227c0.203,0.026,0.367-0.04,0.565-0.05
								c0.198-0.008,0.434-0.095,0.6-0.179c0.045-0.024,0.196-0.098,0.226-0.13c0.077-0.084,0.05-0.186-0.076-0.176
								c0.01-0.027,0-0.074,0.01-0.106c-0.03-0.01-0.092-0.018-0.124-0.015c-0.025,0.106-0.182,0.05-0.261,0.044
								c0,0.027-0.015,0.064-0.015,0.092c-0.057-0.002-0.121-0.007-0.186-0.015c-0.04,0.058-0.069,0.008-0.129,0.021
								c-0.048,0.019-0.055,0.051-0.104,0.063c-0.069,0.017-0.218,0.047-0.288,0.024"/>
						</g>
						<g>
							<defs>
								<path id="SVGID_46_" d="M94.056,45.368C93.188,53.007,86.184,58.52,78.4,57.684c-7.782-0.835-13.391-7.702-12.53-15.336
									c0.862-7.637,7.872-13.146,15.649-12.316C89.303,30.865,94.913,37.732,94.056,45.368z"/>
							</defs>
							<clipPath id="SVGID_47_">
								<use xlink:href="#SVGID_46_"  overflow="visible"/>
							</clipPath>
							<path opacity="0.15" clip-path="url(#SVGID_47_)" fill="#A3A09F" enable-background="new    " d="M71.397,33.545
								c0.104-0.008,0.117-0.09,0.188-0.14c0.053-0.034,0.104-0.026,0.164-0.055c0.144-0.058,0.161-0.124,0.337-0.111
								c0.005-0.013,0.025-0.048,0.025-0.063c-0.022,0-0.07-0.025-0.095-0.025c0-0.017,0-0.033,0.008-0.054
								c0.064-0.018,0.116-0.027,0.188-0.06c0.069-0.035,0.141-0.146,0.237-0.119c-0.032,0.074-0.027,0.163-0.042,0.245
								c-0.062-0.011-0.082,0.005-0.094,0.06c-0.063,0.013-0.053,0.005-0.092,0.058c-0.063-0.021-0.151,0.029-0.198,0.055
								c-0.085,0.035-0.174,0.06-0.243,0.119c-0.109,0.079-0.213,0.166-0.377,0.132"/>
						</g>
						<g>
							<defs>
								<path id="SVGID_48_" d="M94.056,45.368C93.188,53.007,86.184,58.52,78.4,57.684c-7.782-0.835-13.391-7.702-12.53-15.336
									c0.862-7.637,7.872-13.146,15.649-12.316C89.303,30.865,94.913,37.732,94.056,45.368z"/>
							</defs>
							<clipPath id="SVGID_49_">
								<use xlink:href="#SVGID_48_"  overflow="visible"/>
							</clipPath>
							<path opacity="0.15" clip-path="url(#SVGID_49_)" fill="#A3A0A0" enable-background="new    " d="M72.63,32.733
								c0.047-0.01,0.095-0.017,0.144-0.017c-0.002-0.025,0.018-0.064,0.013-0.092c0.024,0.01,0.067,0,0.095,0.01
								c0.01-0.02,0.021-0.035,0.024-0.05c0.045,0,0.077,0,0.111,0.021c0.01,0,0.01,0,0.003-0.003
								c-0.03,0.014-0.037,0.021-0.077,0.025c-0.008,0.01,0.008,0.027-0.005,0.034c-0.087,0.024-0.221,0.229-0.357,0.146"/>
						</g>
						<g>
							<defs>
								<path id="SVGID_50_" d="M94.056,45.368C93.188,53.007,86.184,58.52,78.4,57.684c-7.782-0.835-13.391-7.702-12.53-15.336
									c0.862-7.637,7.872-13.146,15.649-12.316C89.303,30.865,94.913,37.732,94.056,45.368z"/>
							</defs>
							<clipPath id="SVGID_51_">
								<use xlink:href="#SVGID_50_"  overflow="visible"/>
							</clipPath>
							<path opacity="0.15" clip-path="url(#SVGID_51_)" fill="#A3A0A0" enable-background="new    " d="M73.186,32.523
								c0,0.011,0,0.016-0.005,0.024c-0.047,0-0.095-0.008-0.149-0.013c0.005-0.018,0.005-0.032,0.005-0.044
								c0.033-0.004,0.06-0.009,0.087,0.005c-0.012-0.022-0.007-0.035-0.015-0.045c0.057,0.013,0.069-0.027,0.106-0.04
								c0.05-0.011,0.109,0.005,0.161,0.013c-0.012,0.027-0.034,0.037-0.074,0.03c0.003,0.021-0.018,0.049-0.018,0.068
								c-0.01-0.005-0.029,0.002-0.047-0.003c0,0.014-0.008,0.022-0.008,0.037c-0.059-0.005-0.113-0.015-0.171-0.01"/>
						</g>
						<g>
							<defs>
								<path id="SVGID_52_" d="M94.056,45.368C93.188,53.007,86.184,58.52,78.4,57.684c-7.782-0.835-13.391-7.702-12.53-15.336
									c0.862-7.637,7.872-13.146,15.649-12.316C89.303,30.865,94.913,37.732,94.056,45.368z"/>
							</defs>
							<clipPath id="SVGID_53_">
								<use xlink:href="#SVGID_52_"  overflow="visible"/>
							</clipPath>
							<path opacity="0.15" clip-path="url(#SVGID_53_)" fill="#A19F9F" enable-background="new    " d="M79.726,34.596
								c-0.005-0.01-0.008-0.021-0.005-0.042c0.052,0.002,0.102,0.005,0.151,0.015c0.005,0.021,0,0.063-0.013,0.077
								c-0.005,0.002-0.018,0-0.029,0c0.012,0.021,0.005,0.024,0.012,0.047c-0.069-0.005-0.136-0.013-0.195-0.021
								c-0.008-0.027-0.01-0.055-0.013-0.079C79.664,34.591,79.698,34.591,79.726,34.596"/>
						</g>
						<g>
							<defs>
								<path id="SVGID_54_" d="M94.056,45.368C93.188,53.007,86.184,58.52,78.4,57.684c-7.782-0.835-13.391-7.702-12.53-15.336
									c0.862-7.637,7.872-13.146,15.649-12.316C89.303,30.865,94.913,37.732,94.056,45.368z"/>
							</defs>
							<clipPath id="SVGID_55_">
								<use xlink:href="#SVGID_54_"  overflow="visible"/>
							</clipPath>
							<path opacity="0.15" clip-path="url(#SVGID_55_)" fill="#9E9E9F" enable-background="new    " d="M73.748,35.05
								c-0.037,0.007-0.111,0.01-0.161,0.005c-0.002,0.01-0.008,0.027-0.008,0.039c-0.017-0.002-0.034,0-0.042-0.002
								c0,0.047-0.037,0.066-0.084,0.057c-0.01,0.045,0.02,0.082,0.069,0.064c0,0.03-0.008,0.063-0.015,0.09
								c-0.025,0-0.063,0.01-0.09,0.002c0,0.021-0.012,0.047-0.012,0.067c-0.082,0.002-0.082,0.104-0.082,0.171
								c0.06-0.008,0.102,0.018,0.094,0.074c0.035,0.008,0.067,0.008,0.104,0c0-0.016,0.005-0.027,0-0.042
								c0.027,0.002,0.064,0.007,0.097,0.007c0.005-0.007,0.003-0.016,0.008-0.021c0.094,0.01,0.193-0.06,0.282-0.075
								c0.067-0.015,0.238-0.023,0.233-0.104c0.055-0.018,0.044-0.104,0.052-0.156c0.027-0.087,0.032-0.063,0.109-0.1
								c0.057-0.027,0.06-0.005,0.076-0.084c0.016-0.082-0.02-0.061-0.047-0.109c-0.022-0.065,0.008-0.068-0.066-0.097
								c-0.042-0.012-0.119-0.002-0.164,0c-0.097,0.016-0.216,0.021-0.258,0.097c-0.05,0.042-0.106,0.097-0.171,0.141"/>
						</g>
						<g>
							<defs>
								<path id="SVGID_56_" d="M94.056,45.368C93.188,53.007,86.184,58.52,78.4,57.684c-7.782-0.835-13.391-7.702-12.53-15.336
									c0.862-7.637,7.872-13.146,15.649-12.316C89.303,30.865,94.913,37.732,94.056,45.368z"/>
							</defs>
							<clipPath id="SVGID_57_">
								<use xlink:href="#SVGID_56_"  overflow="visible"/>
							</clipPath>
							<path clip-path="url(#SVGID_57_)" fill="none" stroke="#566833" stroke-width="0.187" stroke-miterlimit="10" d="
								M66.328,40.771"/>
						</g>
						<g>
							<defs>
								<path id="SVGID_58_" d="M94.056,45.368C93.188,53.007,86.184,58.52,78.4,57.684c-7.782-0.835-13.391-7.702-12.53-15.336
									c0.862-7.637,7.872-13.146,15.649-12.316C89.303,30.865,94.913,37.732,94.056,45.368z"/>
							</defs>
							<clipPath id="SVGID_59_">
								<use xlink:href="#SVGID_58_"  overflow="visible"/>
							</clipPath>
							<path clip-path="url(#SVGID_59_)" fill="none" stroke="#566833" stroke-width="0.187" stroke-miterlimit="10" d="
								M86.04,24.887"/>
						</g>
						<g>
							<defs>
								<path id="SVGID_60_" d="M94.056,45.368C93.188,53.007,86.184,58.52,78.4,57.684c-7.782-0.835-13.391-7.702-12.53-15.336
									c0.862-7.637,7.872-13.146,15.649-12.316C89.303,30.865,94.913,37.732,94.056,45.368z"/>
							</defs>
							<clipPath id="SVGID_61_">
								<use xlink:href="#SVGID_60_"  overflow="visible"/>
							</clipPath>
							<path opacity="0.15" clip-path="url(#SVGID_61_)" fill="#A4A3A3" enable-background="new    " d="M85.077,50.924
								c-0.193,0.188-0.328,0.395-0.576,0.525c-0.25,0.132-0.629,0.116-0.764,0.425c-0.061,0.136,0.016,0.295,0.01,0.419
								c-0.002,0.055,0.006,0.163-0.015,0.213c-0.05,0.087-0.153,0.063-0.19,0.121c-0.182,0.251-0.106,0.551-0.084,0.849
								c0.17,0.002,0.139,0.163,0.313,0.178c0.142,0.012,0.166-0.073,0.278-0.157c0.181-0.148,0.318-0.293,0.455-0.481
								c0.152-0.215,0.259-0.438,0.354-0.69c0.069-0.172,0.132-0.691,0.384-0.633c0.051-0.3,0.074-0.567-0.105-0.789"/>
						</g>
						<g>
							<defs>
								<path id="SVGID_62_" d="M94.056,45.368C93.188,53.007,86.184,58.52,78.4,57.684c-7.782-0.835-13.391-7.702-12.53-15.336
									c0.862-7.637,7.872-13.146,15.649-12.316C89.303,30.865,94.913,37.732,94.056,45.368z"/>
							</defs>
							<clipPath id="SVGID_63_">
								<use xlink:href="#SVGID_62_"  overflow="visible"/>
							</clipPath>
							<path clip-path="url(#SVGID_63_)" fill="none" d="M88.258,33.545c-0.286,0.086-0.602-0.077-0.852-0.199
								c-0.021,0.1-0.507,0.251-0.631,0.261c0.072,0.133,0.359,0.153,0.491,0.243c0.206,0.137,0.342,0.166,0.556,0.258
								c-0.132-0.09-0.324-0.181-0.261-0.382c0.201,0.019,0.414,0.034,0.62,0.034c0.105,0,0.23,0.064,0.287-0.054
								c0.063-0.112-0.039-0.18-0.141-0.183"/>
						</g>
						<g>
							<defs>
								<path id="SVGID_64_" d="M94.056,45.368C93.188,53.007,86.184,58.52,78.4,57.684c-7.782-0.835-13.391-7.702-12.53-15.336
									c0.862-7.637,7.872-13.146,15.649-12.316C89.303,30.865,94.913,37.732,94.056,45.368z"/>
							</defs>
							<clipPath id="SVGID_65_">
								<use xlink:href="#SVGID_64_"  overflow="visible"/>
							</clipPath>
							<path opacity="0.15" clip-path="url(#SVGID_65_)" fill="#A4A3A3" enable-background="new    " d="M76.049,46.843
								c0.137-0.079,0.074-0.237,0.042-0.344c-0.052-0.138-0.099-0.172-0.238-0.22c-0.284-0.087-0.558-0.118-0.857-0.165
								c0.01-0.175,0.063-0.292-0.116-0.396c-0.119-0.074-0.33-0.082-0.474-0.067c-0.322,0.032-0.612,0.188-0.925,0.229
								c-0.303,0.042-0.498-0.193-0.838-0.139c-0.367,0.06-0.657,0.06-0.878-0.243c-0.092-0.129-0.151-0.206-0.285-0.295
								c-0.163-0.119-0.176-0.217-0.271-0.407c-0.139-0.282-0.29-0.488-0.468-0.748c-0.169-0.251-0.395-0.593,0.01-0.736
								c0.168-0.063,0.35-0.09,0.528-0.159c0.258-0.104,0.49-0.236,0.743-0.363c0.248-0.129,0.441-0.153,0.719-0.201
								c0.791-0.131,1.54-0.327,2.354-0.337c0.649-0.014,1.291,0.018,1.931,0.095c0.285,0.032,0.63,0.034,0.905,0.129
								c0.116,0.044,0.184,0.111,0.317,0.111c0.196,0.002,0.6-0.196,0.759-0.243c0.593-0.181,1.217-0.409,1.842-0.454
								c0.38-0.026,0.78,0.059,1.157,0.09c0.25,0.021,0.591-0.068,0.812,0.05c0.124,0.064,0.144,0.179,0.201,0.282
								c0.002,0.01,0.073,0.096,0.076,0.109c0.026,0.042-0.019,0.089,0.026,0.136c0.074,0.095,0.17-0.021,0.211,0.154
								c0.021,0.094-0.018,0.258-0.023,0.352c-0.008,0.243,0.079,0.354,0.193,0.555c0.223,0.049,0.16,0.313,0.199,0.476
								c0.032,0.129,0.114,0.238,0.176,0.359c0.141,0.031,0.117,0.1,0.174,0.179c0.025,0.029,0.025,0.062,0.064,0.099
								c0.038,0.042,0.084,0.017,0.123,0.042c0.131,0.107,0.146,0.293,0.348,0.302c0.01,0.087-0.027,0.192-0.01,0.279
								c0.026,0.158,0.123,0.203,0.211,0.329c0.004-0.012,0.004-0.037,0.01-0.044c0.125,0.037,0.205-0.053,0.342-0.043
								c0.158,0.013,0.275,0.085,0.443,0.072c0.229-0.022,0.553-0.258,0.764-0.182c-0.01,0.242,0.158,0.341,0.406,0.248
								c0.135-0.048,0.299-0.333,0.09-0.269c-0.029-0.042-0.037-0.039-0.021-0.097c0.121,0.013,0.218-0.021,0.354,0
								c-0.041,0.04-0.082,0.076-0.143,0.1c-0.027,0.26-0.033,0.446-0.295,0.612c-0.057,0.033-0.099,0.062-0.16,0.082
								c-0.1,0.044-1.111,0.206-1.041,0.192c-0.662,0.126-1.293,0.322-1.938,0.483c-0.414,0.102-0.836,0.179-1.247,0.313
								c-0.28,0.096-0.596,0.215-0.902,0.201c-0.311-0.018-0.422-0.042-0.807,0c-0.962,0.111-2.021,0.293-2.989,0.187
								c-0.204-0.021-0.367-0.049-0.561-0.103c-0.171-0.047-0.385-0.084-0.541-0.163c-0.21-0.105-0.282-0.271-0.443-0.401"/>
						</g>
						<g>
							<defs>
								<path id="SVGID_66_" d="M94.056,45.368C93.188,53.007,86.184,58.52,78.4,57.684c-7.782-0.835-13.391-7.702-12.53-15.336
									c0.862-7.637,7.872-13.146,15.649-12.316C89.303,30.865,94.913,37.732,94.056,45.368z"/>
							</defs>
							<clipPath id="SVGID_67_">
								<use xlink:href="#SVGID_66_"  overflow="visible"/>
							</clipPath>
							<path opacity="0.15" clip-path="url(#SVGID_67_)" fill="#A4A3A3" enable-background="new    " d="M86.311,41.389
								c-0.089,0.169-0.035,0.546,0.18,0.562c0.01,0.05,0.055,0.062,0.068,0.097c0.013,0.029,0.005,0.099,0.02,0.126
								c0.045,0.077,0.127,0.072,0.111-0.063c0.03-0.003,0.09,0.009,0.122,0.019c-0.013,0.139-0.149,0.374,0.037,0.409
								c0.026,0.178,0.377,0.171,0.513,0.119c0.146-0.051,0.335-0.236,0.404-0.37c0.027-0.011,0.066-0.011,0.097-0.002
								c0.021,0.104-0.005,0.188,0.042,0.292c0.051,0.11,0.109,0.16,0.201,0.229c0.087,0.069,0.213,0.137,0.29,0.241
								c0.026,0.047,0.035,0.079,0.063,0.118c0.043,0.058,0.08,0.069,0.097,0.135c0.015,0.153-0.151,0.19-0.236,0.253
								c-0.038,0.037-0.057,0.089-0.099,0.129c-0.037,0.034-0.092,0.061-0.143,0.1c-0.181,0.147-0.33,0.392-0.543,0.511
								c-0.131,0.074-0.268,0.146-0.432,0.187c-0.193,0.044-0.307-0.085-0.361,0.168c-0.275,0.121-0.598,0.151-0.869,0.24
								c-0.041,0.013-0.115,0.08-0.151,0.1c-0.019,0.009-0.021,0.04-0.05,0.053c-0.057,0.024-0.094,0.008-0.153,0.013
								c-0.069,0.005-0.179-0.008-0.248,0.013c-0.108,0.037-0.119,0.098-0.233,0.111c-0.072,0.007-0.352-0.005-0.395-0.067
								c-0.047-0.068,0.016-0.313,0.003-0.405c-0.011-0.119-0.058-0.253-0.069-0.354c-0.01-0.144,0.039-0.184-0.066-0.313
								c-0.069-0.089-0.209-0.201-0.211-0.319c-0.123-0.043-0.09-0.231-0.123-0.33c-0.045-0.095-0.182-0.139-0.254-0.216
								c-0.084-0.106-0.053-0.185-0.076-0.332c-0.021-0.134-0.051-0.238-0.092-0.354c-0.021-0.063-0.037-0.121-0.055-0.179
								c-0.033-0.077-0.098-0.137-0.121-0.203c-0.059-0.153,0.01-0.321,0.168-0.38c0.094-0.039,0.219-0.023,0.316-0.026
								c0.354-0.021,0.682-0.158,1.023-0.24c0.185-0.045,0.377-0.104,0.559-0.134c0.113-0.021,0.625-0.143,0.719-0.022
								c0.027,0.03,0.032,0.06,0.004,0.1"/>
						</g>
						<g>
							<defs>
								<path id="SVGID_68_" d="M94.056,45.368C93.188,53.007,86.184,58.52,78.4,57.684c-7.782-0.835-13.391-7.702-12.53-15.336
									c0.862-7.637,7.872-13.146,15.649-12.316C89.303,30.865,94.913,37.732,94.056,45.368z"/>
							</defs>
							<clipPath id="SVGID_69_">
								<use xlink:href="#SVGID_68_"  overflow="visible"/>
							</clipPath>
							<path opacity="0.15" clip-path="url(#SVGID_69_)" fill="#A4A2A2" enable-background="new    " d="M89.114,40.65
								c-0.211-0.029-0.396,0.027-0.6,0.074c-0.585,0.153-1.146,0.443-1.758,0.448c0.039,0.159,0.041,0.288,0.139,0.422
								c0.096,0.126,0.184,0.211,0.303,0.317c0.098,0.089,0.248,0.161,0.395,0.181c0.179,0.032,0.24-0.106,0.42-0.064
								c-0.014,0.035,0.002,0.086-0.012,0.124c0.119,0.077,0.143,0.227,0.293,0.288c0.069,0.029,0.158,0.029,0.244,0.053
								c0.078,0.023,0.135,0.084,0.205,0.113c0.211,0.093,0.432,0.106,0.659,0.145c0.179,0.023,0.39,0.032,0.554,0.079
								c-0.016,0.087,0.049,0.166,0.073,0.229c0.042,0.077,0.042,0.166,0.114,0.227c0.092,0.084,0.266,0.155,0.384,0.206
								c0.005,0.023,0,0.059-0.012,0.08c-0.214-0.07-0.124,0.156-0.063,0.254c0.026,0.055,0.047,0.104,0.102,0.146
								c0.007,0.005,0.148,0.079,0.148,0.079c0.068-0.002,0.202-0.198,0.252-0.187c0.094,0.019,0.037,0.282,0.027,0.348
								c-0.047,0.285,0.014,0.496,0.045,0.775c0.023,0.254,0.09,0.591,0.374,0.675c0.229,0.063,0.419,0.08,0.612-0.074
								c0.174-0.146-0.01-0.113,0.055-0.282c0.143,0,0.211-0.114,0.314-0.198c0.063-0.055,0.09-0.073,0.134-0.139
								c0.034-0.055,0.034-0.09,0.085-0.14c0.107-0.1,0.23-0.146,0.329-0.261c0.103-0.118,0.129-0.179,0.149-0.332
								c0.146-0.005,0.234,0.069,0.354,0.006c0.042-0.021,0.021-0.114,0.111-0.088c0.062,0.024,0.047,0.095,0.049,0.148
								c0.023,0.208,0.109,0.396,0.152,0.61c0.02,0.104,0.039,0.218,0.031,0.329c0,0.106-0.09,0.395-0.021,0.477
								c0.127,0.124,0.199-0.042,0.193-0.137c-0.015-0.087-0.121-0.232,0.012-0.277c0.099,0.121-0.07,0.277,0.129,0.332
								c0.231,0.069,0.199-0.134,0.199-0.268c0-0.343,0.101-0.713,0.139-1.063c0.033-0.282,0.056-0.506-0.01-0.788
								c-0.057-0.248,0.01-0.48-0.023-0.727c-0.027-0.238-0.129-0.464-0.154-0.701c-0.015-0.146,0.04-0.285,0.021-0.429
								c-0.021-0.133-0.079-0.251-0.129-0.375c-0.043-0.111-0.021-0.187-0.037-0.292c-0.04-0.206-0.204-0.397-0.252-0.605
								c-0.041-0.169-0.028-0.317-0.086-0.479c-0.076-0.23-0.187-0.585-0.401-0.72c-0.151-0.092-0.374-0.082-0.548-0.1
								c-0.282-0.032-0.61-0.136-0.895-0.094c-0.149,0.023-0.33,0.062-0.468,0.113c-0.216,0.076-0.426,0.222-0.622,0.334
								c-0.266,0.159-0.416,0.143-0.714,0.211c-0.472,0.103-0.938,0.191-1.405,0.304c-0.166,0.037-0.39,0.104-0.531,0.186
								c-0.228,0.134-0.396,0.393-0.571,0.588c-0.069,0.072-0.188,0.177-0.271,0.211c-0.138,0.066-0.354,0.082-0.504,0.142
								c-0.095,0.04-0.177,0.098-0.271,0.14c0.073,0.018,0.161,0.005,0.221-0.032c0,0.013,0,0.027-0.003,0.037"/>
						</g>
						<g>
							<defs>
								<path id="SVGID_70_" d="M94.056,45.368C93.188,53.007,86.184,58.52,78.4,57.684c-7.782-0.835-13.391-7.702-12.53-15.336
									c0.862-7.637,7.872-13.146,15.649-12.316C89.303,30.865,94.913,37.732,94.056,45.368z"/>
							</defs>
							<clipPath id="SVGID_71_">
								<use xlink:href="#SVGID_70_"  overflow="visible"/>
							</clipPath>
							<path opacity="0.15" clip-path="url(#SVGID_71_)" fill="#A4A2A2" enable-background="new    " d="M76.2,51.254
								c-0.06,0.313,0.25,0.64,0.404,0.888c0.168,0.287,0.089,0.604,0.158,0.917c0.06,0.298,0.38,0.585,0.533,0.868
								c0.067,0.121,0.139,0.285,0.153,0.414c0.035,0.188-0.039,0.285,0.146,0.401c0.1,0.063,0.414,0.124,0.543,0.092
								c0.058-0.021,0.085-0.095,0.149-0.111c0.092-0.027,0.268,0.032,0.374,0.042c0.179,0.021,0.319,0.021,0.485-0.008
								c0.14-0.024,0.397,0.021,0.519-0.034c0.069-0.032,0.084-0.112,0.139-0.159c0.063-0.045,0.146-0.073,0.211-0.113
								c0.114-0.071,0.229-0.132,0.357-0.193c0.237-0.116,0.527-0.3,0.553-0.563c0.018-0.131-0.1-0.293,0.063-0.371
								c0.114-0.056,0.353,0.078,0.483,0.071c0.115-0.19,0.188-0.268,0.211-0.498c0.018-0.169,0-0.145-0.064-0.264
								c-0.045-0.079-0.109-0.158-0.102-0.247c0.064-0.008,0.123-0.016,0.184-0.025c0-0.052,0.039-0.087,0.047-0.139
								c0.156-0.042,0.258-0.166,0.398-0.221c0.174-0.061,0.365-0.092,0.541-0.185c0.188-0.089,0.213-0.141,0.316-0.297
								c0.053-0.077,0.088-0.05,0.106-0.153c0.026-0.088-0.042-0.206-0.037-0.298c0-0.167,0.066-0.313,0.109-0.451
								c0.065-0.188,0.049-0.227-0.063-0.398c-0.078-0.132-0.123-0.23-0.121-0.385c0.006-0.171,0.076-0.433-0.072-0.55
								c-0.063-0.056-0.232-0.043-0.321-0.049c-0.543-0.062-1.062-0.01-1.604,0.049c-0.693,0.078-1.389,0.168-2.081,0.239
								c-0.545,0.061-1.22,0.171-1.708,0.427c-0.396,0.211-1.023,0.698-1.017,1.192"/>
						</g>
						<g>
							<defs>
								<path id="SVGID_72_" d="M94.056,45.368C93.188,53.007,86.184,58.52,78.4,57.684c-7.782-0.835-13.391-7.702-12.53-15.336
									c0.862-7.637,7.872-13.146,15.649-12.316C89.303,30.865,94.913,37.732,94.056,45.368z"/>
							</defs>
							<clipPath id="SVGID_73_">
								<use xlink:href="#SVGID_72_"  overflow="visible"/>
							</clipPath>
							<path opacity="0.15" clip-path="url(#SVGID_73_)" fill="#A4A2A2" enable-background="new    " d="M66.764,48.911
								c0.003-0.156,0.085-0.264,0.119-0.396c0.037-0.148,0.027-0.296,0.055-0.444c0.03-0.176-0.007-0.305-0.045-0.464
								c-0.044-0.168-0.01-0.163,0.075-0.31c0.161-0.285,0.248-0.516,0.282-0.86c0.02-0.146,0.064-0.276-0.022-0.398
								c-0.06-0.074-0.245-0.208-0.335-0.258c0.064-0.259-0.232-0.335-0.392-0.427c-0.084-0.043-0.213-0.111-0.263-0.179
								c-0.076-0.095-0.055-0.196-0.144-0.288c-0.092-0.105-0.161-0.102-0.218-0.231c-0.04-0.103-0.053-0.267-0.055-0.372
								c-0.01-0.182,0.084-0.615-0.127-0.718c-0.168,0.271-0.129,0.77-0.079,1.044c0.029,0.233-0.146,0.486-0.082,0.72
								c0.119,0.451,0.261,0.801,0.29,1.271c0.03,0.456,0.29,0.984,0.395,1.413c0.079,0.351,0.319,0.577,0.565,0.877"/>
						</g>
					</g>
					<path fill="#9CBF3D" d="M114.629,46.399c-0.297,0.005-0.726-0.208-1.018-0.276c-3.253-0.77-6.703-0.863-10.029-1.128
						c-0.949-0.075-1.9-0.146-2.851-0.214c-1.231-0.085-2.472-0.169-3.707-0.243c-1.241-0.074-2.487-0.148-3.741-0.193
						c-1.439-0.052-2.886-0.069-4.33-0.039c-0.849,0.019-1.699,0.047-2.552,0.099c-4.153,0.248-8.472,0.697-12.545,1.537
						c-2.095,0.433-4.2,0.868-6.188,1.649c-1.79,0.701-3.533,1.455-4.785,2.938c-2.623,3.111,1.079,7.458,3.962,9.42
						c0.815,0.555,1.714,1.044,2.623,1.439c2.623,1.138,5.826,2.033,8.688,2.254c4.028,0.302,7.875-0.593,11.489-2.445
						c1.075-0.55,2.108-1.178,3.081-1.897c2.977-2.215,4.824-4.938,6.156-8.309c0.469-1.207,0.828-2.463,1.115-3.725l-6.543,0.245
						c0,0-2.894,8.869-11.928,10.012c0,0-4.84,0.926-8.99-1.748c0,0-6.037-3.4,5.95-6.45c4.589-1.169,9.292-1.904,14.025-2.349
						c4.708-0.438,9.461-0.6,14.19-0.62C109.348,46.343,111.991,46.446,114.629,46.399z"/>
					<path fill="#9CBF3D" d="M122.385,46.902c0.025-0.313-0.885-0.426-0.885-0.426l-1.85-0.122l-0.3-0.062l-0.084-0.064
						l-0.238-0.353l0.027,0.003l0.353-0.063l0.002-0.049c0.024,0.002,0.047-0.063,0.055-0.146c0.008-0.084-0.012-0.154-0.034-0.156
						l0.003-0.03l-0.609,0.03h-0.072l-0.01-0.013l-1.529-2.117c-0.346-0.124-0.301,0.176-0.301,0.176l0.729,2.192l-0.029,0.456
						h-1.342l-0.358-0.035l-0.662-0.835l-0.275-0.019l0.124,0.928l-0.527,0.192l0.513,0.188l-0.265,0.938l0.3,0.021l0.682-0.733
						l0.551,0.034l1.205,0.117l-0.042,0.674c-0.185,0.314-0.351,0.633-0.528,0.95c-0.055,0.097-0.742,1.172-0.406,1.198
						c0.191,0.014,0.367-0.25,0.483-0.365c0.515-0.526,1.009-1.071,1.526-1.596l0.633,0.027c0.027,0.005,0.048-0.062,0.055-0.146
						c0.01-0.088-0.007-0.153-0.033-0.156c-0.004,0-0.006,0.005-0.019,0.011l-0.306-0.075c0.061-0.057,0.111-0.112,0.172-0.176
						c0.021-0.02,0.148-0.186,0.179-0.181l2.179,0.141C122.42,47.326,122.385,46.902,122.385,46.902z"/>
					<path fill="#2CA6DE" d="M37.048,38.733c-0.052,0.313,0.843,0.507,0.843,0.507l1.832,0.282l0.293,0.089l0.074,0.069l0.201,0.374
						l-0.018-0.007l-0.359,0.034l-0.008,0.045c-0.024-0.003-0.055,0.062-0.066,0.144c-0.018,0.087-0.008,0.156,0.015,0.156v0.035
						l0.607,0.021l0.074,0.005l0.005,0.016l1.321,2.241c0.34,0.152,0.32-0.146,0.32-0.146l-0.519-2.246l0.074-0.451l1.329,0.116
						l0.353,0.067l0.59,0.893l0.263,0.042l-0.027-0.935l0.543-0.145l-0.491-0.232l0.343-0.912l-0.293-0.048l-0.749,0.672
						l-0.532-0.086l-1.203-0.225l0.114-0.664c0.206-0.3,0.401-0.598,0.607-0.896c0.064-0.095,0.855-1.104,0.519-1.16
						c-0.184-0.03-0.393,0.215-0.514,0.324c-0.563,0.479-1.105,0.97-1.671,1.448l-0.627-0.087c-0.027-0.004-0.058,0.06-0.069,0.146
						c-0.016,0.081-0.005,0.151,0.02,0.153c0.005,0,0.02,0,0.022-0.005l0.297,0.1c-0.066,0.052-0.129,0.106-0.188,0.156
						c-0.026,0.021-0.168,0.173-0.198,0.171l-2.154-0.338C37.053,38.31,37.048,38.733,37.048,38.733z"/>
					<path fill="#2CA6DE" d="M86.176,23.689c0,0,7.275,2.384,7.189,6.104c0,0,0.586,2.956-6.646,5.797c0,0-5.462,2.393-13.829,3.441
						c0,0,18.779-2.798,15.131-7.419c0,0-4.284-4.531-12.714-2.093c0,0-6.411,2.043-9.263,9.416l-6.527,0.138
						c0,0,1.924-12.145,14.575-15.521C74.093,23.553,79.445,21.642,86.176,23.689z"/>
					
						<linearGradient id="SVGID_74_" gradientUnits="userSpaceOnUse" x1="-195.3594" y1="342.6985" x2="-162.6772" y2="342.6985" gradientTransform="matrix(0.994 0.1093 0.1093 -0.994 223.6298 415.1104)">
						<stop  offset="0" style="stop-color:#687F37"/>
						<stop  offset="0.399" style="stop-color:#71873B"/>
						<stop  offset="0.7291" style="stop-color:#7B953C"/>
						<stop  offset="1" style="stop-color:#4F5F33"/>
					</linearGradient>
					<path fill="url(#SVGID_74_)" d="M73.721,62.941c0,0-7.267-2.381-7.194-6.09c0,0-0.573-2.944,6.651-5.771
						c0,0,5.46-2.377,13.822-3.419c0,0-18.756,2.663-15.115,7.271c0,0,4.287,4.521,12.722,2.096c0,0,6.411-2.098,9.266-9.442
						l6.539-0.241c0,0-1.957,12.392-14.609,15.741C85.801,63.085,80.452,64.99,73.721,62.941z"/>
					<path fill="#2CA6DE" d="M44.788,39.946c0.29-0.005,0.717,0.211,1.012,0.28c3.253,0.767,6.706,0.859,10.033,1.123
						c0.947,0.076,1.899,0.148,2.849,0.215c1.234,0.087,2.467,0.167,3.704,0.243c1.244,0.079,2.494,0.151,3.738,0.193
						c1.446,0.05,2.892,0.068,4.332,0.04c0.853-0.019,1.705-0.045,2.551-0.098c4.155-0.248,8.469-0.695,12.548-1.54
						c2.092-0.429,4.197-0.871,6.189-1.649c1.785-0.702,3.533-1.453,4.785-2.938c2.618-3.104-1.086-7.457-3.965-9.413
						c-0.814-0.554-1.711-1.049-2.62-1.445c-2.631-1.139-5.829-2.032-8.688-2.253c-4.03-0.307-7.872,0.59-11.49,2.44
						c-1.073,0.56-2.107,1.184-3.077,1.902c-2.979,2.216-4.827,4.938-6.155,8.313c-0.479,1.202-0.831,2.459-1.118,3.723l6.547-0.246
						c0,0,2.887-8.868,11.918-10.009c0,0,4.845-0.926,8.995,1.751c0,0,6.037,3.397-5.949,6.445c-4.595,1.172-9.3,1.906-14.022,2.349
						c-4.716,0.44-9.461,0.598-14.199,0.622C50.066,40,47.421,39.896,44.788,39.946z"/>
					
						<linearGradient id="SVGID_75_" gradientUnits="userSpaceOnUse" x1="-204.3413" y1="365.2444" x2="-172.2139" y2="365.2444" gradientTransform="matrix(0.994 0.1093 0.1093 -0.994 223.6298 415.1104)">
						<stop  offset="0" style="stop-color:#314D8F"/>
						<stop  offset="0.399" style="stop-color:#327FBA"/>
						<stop  offset="0.7291" style="stop-color:#317FBC"/>
						<stop  offset="1" style="stop-color:#2A4A91"/>
					</linearGradient>
					<path fill="url(#SVGID_75_)" d="M85.659,23.635c0,0,7.149,2.348,7.067,6.024c0,0,0.565,2.919-6.537,5.731
						c0,0-5.462,2.231-13.684,3.275c0,0,18.544-2.642,14.962-7.205c0,0-4.207-4.474-12.502-2.062c0,0-6.3,2.017-9.109,9.306
						l-6.424,0.142c0,0,1.904-12.002,14.346-15.339C73.778,23.509,79.041,21.615,85.659,23.635z"/>
				</g>
			</g>
		</g>
	</g>
</g>
</svg>
