<?xml version="1.0" encoding="utf-8"?>
<!-- Generator: Adobe Illustrator 16.0.0, SVG Export Plug-In . SVG Version: 6.00 Build 0)  -->
<!DOCTYPE svg PUBLIC "-//W3C//DTD SVG 1.1//EN" "http://www.w3.org/Graphics/SVG/1.1/DTD/svg11.dtd">
<svg version="1.1" id="Layer_1" xmlns="http://www.w3.org/2000/svg" xmlns:xlink="http://www.w3.org/1999/xlink" x="0px" y="0px"
	 width="160.337px" height="130.932px" viewBox="0 0 160.337 130.932" enable-background="new 0 0 160.337 130.932"
	 xml:space="preserve">
<g>
	<g>
		<g>
			<g>
				<g>
					<g>
						<defs>
							<path id="SVGID_1_" d="M94.056,41.368c-0.868,7.639-7.872,13.152-15.656,12.316c-7.782-0.835-13.391-7.702-12.53-15.336
								c0.862-7.637,7.872-13.147,15.649-12.317C89.303,26.864,94.913,33.732,94.056,41.368z"/>
						</defs>
						<clipPath id="SVGID_2_">
							<use xlink:href="#SVGID_1_"  overflow="visible"/>
						</clipPath>
						<path opacity="0.15" clip-path="url(#SVGID_2_)" fill="#A4A3A3" d="M88.534,30.717c-0.099-0.136-0.148-0.232-0.292-0.312
							c0.314-0.103-0.253-0.221-0.285-0.233c0.057,0.024,0.084,0.072,0.116,0.124c-0.158,0.037-0.446-0.042-0.625-0.072
							c0-0.018-0.002-0.047,0-0.066c-0.186-0.112-0.434-0.104-0.664-0.129c-0.221-0.025-0.449-0.1-0.649-0.104
							c0,0.035-0.025,0.087-0.021,0.124c-0.118-0.01-0.429-0.03-0.414-0.171c0.075,0,0.149,0.015,0.214,0.02
							c0.018-0.027,0.018-0.06,0.018-0.089c-0.1-0.003-0.169-0.1-0.251-0.139c-0.099-0.05-0.238-0.07-0.347-0.072
							c-0.018,0.102-0.037,0.206-0.037,0.308c0.037-0.005,0.079,0.02,0.106,0.018c0.002,0.026,0,0.059-0.01,0.081
							c-0.027,0.008-0.077,0-0.102-0.007c-0.018-0.142-0.221-0.177-0.353-0.166c-0.05,0.007-0.092,0.057-0.139,0.059
							c-0.082,0.008-0.156-0.026-0.23-0.005c-0.142,0.038-0.211,0.14-0.39,0.072c-0.129-0.057-0.188-0.119-0.361-0.134
							c0.034,0.05,0.052,0.111,0.052,0.171c-0.216,0.005-0.362-0.134-0.359-0.352c-0.021-0.011-0.042-0.005-0.072-0.013
							c0-0.015,0.018-0.052,0.018-0.067c0.26,0.137,0.543,0.169,0.857,0.214c0.092,0.018,0.367,0.097,0.419-0.008
							c0.08-0.137-0.21-0.23-0.285-0.272c-0.522-0.298-1.178-0.446-1.763-0.57c0.063-0.022,0.063-0.05,0.102-0.084
							c-0.342-0.058-0.677-0.127-1.014-0.146c-0.174-0.013-0.352-0.042-0.528-0.06c-0.181-0.018-0.285,0.013-0.453,0.024
							c-0.322,0.037-0.662,0-0.992,0.01c-0.146,0.008-0.957,0.008-0.957,0.226c0.151,0.022,0.275-0.02,0.419,0.008
							c-0.106,0.087-0.245,0.119-0.374,0.132c-0.077,0.007-0.121-0.022-0.193,0c-0.057,0.017-0.166,0.118-0.226,0.153
							c-0.122,0.072-0.216,0.164-0.345,0.208c-0.139,0.048-0.268,0.027-0.401,0.055c-0.129,0.024-0.275,0.084-0.399,0.124
							c-0.119,0.03-0.313,0.047-0.411,0.102c-0.149,0.084-0.149,0.187-0.124,0.327c0.012,0.055,0.062,0.087,0.069,0.154
							c0.015,0.066-0.021,0.158-0.025,0.228c0.275,0.035,0.565,0.139,0.826,0.042c0.126-0.044,0.226-0.121,0.374-0.074
							c0.171,0.045,0.151,0.149,0.216,0.3c0.169,0.357,0.377,0.216,0.701,0.188c0.154-0.01,0.278,0.08,0.385-0.076
							c0.106-0.149-0.087-0.261,0.069-0.345c0.102-0.055,0.213,0.024,0.322-0.032c0.079-0.045,0.198-0.224,0.221-0.311
							c0.013-0.032-0.454-0.024-0.327-0.247c0.102-0.161,0.485-0.048,0.627-0.07c0.216-0.034,0.263-0.198,0.454-0.287
							c0.188-0.102,0.503-0.119,0.719-0.018l-0.003,0.05c-0.292,0.094-0.84,0.067-0.991,0.354c-0.164,0.308,0.303,0.434,0.558,0.437
							c-0.102,0.069-0.322,0.089-0.322,0.24c0.213,0.089,0.377,0.003,0.32,0.295c-0.142-0.007-0.23-0.134-0.359-0.166
							c-0.209-0.05-0.243,0.084-0.354,0.224c-0.167,0.218-0.37,0.258-0.647,0.228c-0.298-0.034-0.548,0-0.833-0.018
							c-0.266-0.017-0.588-0.121-0.848-0.076c0.074-0.064,0.31,0.015,0.359-0.146c-0.109-0.04-0.216-0.055-0.335-0.072
							c0.005-0.007,0.008-0.055,0.01-0.069c0.025,0,0.037-0.005,0.047-0.015c-0.146-0.003-0.081-0.116-0.032-0.188
							c-0.173-0.144-0.379,0.035-0.57,0.055c-0.062,0.094-0.052,0.163-0.026,0.248c0.01,0.055,0.15,0.108,0.049,0.221
							c-0.042,0.052-0.268,0.039-0.332,0.052c-0.116,0.015-0.218,0.067-0.332,0.087c-0.216,0.045-0.382,0.032-0.541,0.226
							c-0.079,0.094-0.044,0.156-0.188,0.198c-0.082,0.024-0.231,0.003-0.315-0.015c0.055-0.06,0.176-0.179,0.174-0.272
							c-0.037,0.002-0.079-0.018-0.117-0.016c0.08-0.066-0.044-0.037-0.079-0.079c-0.024-0.024-0.071-0.024-0.097-0.052
							c-0.044-0.05,0.013-0.134-0.024-0.169c-0.045-0.042-0.144-0.027-0.208-0.062c-0.072-0.05-0.018-0.154-0.156-0.145
							c0-0.021,0.007-0.049,0-0.069c-0.043-0.012-0.067-0.05-0.119-0.055c0-0.024,0.007-0.044,0.01-0.069
							c0.047,0.016,0.116,0,0.164,0.013c0.017-0.042,0.029-0.116,0.017-0.161c-0.121,0-0.3-0.057-0.203-0.206
							c-0.124-0.066-0.511-0.071-0.528,0.104c-0.141,0.018-0.317-0.188-0.292,0.116c0.042,0.018,0.015,0.018,0.034,0.042
							c0.022,0.003,0.053,0.011,0.069,0.011c-0.024,0.091,0.011,0.178,0.048,0.24c-0.01,0-0.022,0.005-0.027,0.005
							c0,0.188,0.186-0.015,0.255-0.008c-0.01,0.122-0.19,0.06-0.188,0.216c0.035-0.005,0.077,0.018,0.106,0.018
							c-0.015,0.037,0.003,0.099-0.01,0.139c0.146,0.052,0.216-0.087,0.327-0.069c-0.062,0.06-0.15,0.072-0.218,0.119
							c-0.062,0.045-0.087,0.144-0.161,0.186c-0.064,0.037-0.211-0.02-0.198,0.111c0.013,0.095,0.184,0.075,0.271,0.085
							c-0.1,0.032-0.216,0.02-0.275,0.114c-0.082,0.124-0.008,0.15,0.126,0.136c0.082-0.01,0.166-0.106,0.256-0.126
							c0.146-0.04,0.245,0.01,0.396,0.027c0.067,0.002,0.677-0.127,0.461,0.097c-0.032,0.024-0.134-0.025-0.168-0.015
							c-0.063,0.021-0.05,0.091-0.104,0.102c-0.077,0.012-0.206-0.063-0.313-0.067c-0.024,0.067-0.02,0.132,0.008,0.196
							c-0.107-0.006-0.226-0.035-0.327-0.027c-0.114,0-0.219,0.049-0.333,0.021c-0.02,0.035-0.034,0.058-0.032,0.103
							c0.022,0.01,0.037,0,0.053,0.01c-0.021,0.226,0.265,0.121,0.382,0.208c0.042,0.035,0.052,0.124,0.092,0.176
							c0.049,0.064,0.183,0.124,0.183,0.203c0.008,0.114-0.223,0.275-0.314,0.303c-0.166,0.047-0.295,0.02-0.451-0.018
							c-0.38-0.076-0.848-0.161-1.039,0.224c-0.129,0.26-0.314,0.685-0.245,0.994c0.074,0.322,0.553-0.058,0.556,0.317
							c0.021,0.008,0.049,0.01,0.071,0.015c-0.002,0.027-0.01,0.058-0.015,0.084c-0.018,0-0.042,0-0.063,0
							c-0.039,0.243-0.349,0.372-0.527,0.477c-0.145,0.074-0.253,0.174-0.359,0.282c-0.132,0.122-0.114,0.169-0.177,0.332
							c-0.094,0.269-0.57,0.474-0.086,0.675c0.153,0.062,0.352,0.121,0.516,0.146c0.158,0.027,0.183,0.013,0.389-0.035
							c0.984-0.21,2.053-0.384,3.063-0.337c0.354,0.018,0.843,0.221,1.162,0.01c0.184-0.124,0.392-0.399,0.377-0.637
							c-0.335-0.045-0.474-0.159-0.694-0.362c-0.002,0.005,0.01-0.047,0.01-0.047c0.129-0.01,0.117-0.229,0.122-0.343
							c-0.015-0.007-0.032-0.027-0.042-0.037c0.104-0.007,0.163-0.081,0.148-0.188c-0.193-0.012-0.211-0.155-0.359-0.193
							c-0.114-0.021-0.337,0.045-0.477,0.045c-0.168-0.002-0.292,0.022-0.443,0.042c-0.153,0.022-0.29-0.027-0.434-0.044
							c-0.657-0.067-1.226,0.44-1.899,0.332c0.022-0.092-0.04-0.144-0.137-0.144c0.013-0.092,0.109-0.067,0.193-0.058
							c0.08-0.106,0.311-0.02,0.441-0.062c0.124-0.04,0.278-0.145,0.392-0.216c0.261-0.169,0.216-0.523,0.467-0.657
							c0.119-0.064,0.255-0.121,0.384-0.156c0.069-0.022,0.151,0.018,0.198-0.037c0.06-0.052,0.01-0.161,0.06-0.216
							c0.176-0.188,0.596,0.047,0.809-0.079c0.168-0.106,0.352-0.245,0.603-0.137c0.186,0.085,0.26,0.362,0.411,0.504
							c0.206,0.2,0.466,0.104,0.685,0.242c0.148,0.097,0.399,0.393,0.337,0.568c-0.084-0.022-0.137,0.01-0.124,0.102
							c0.298,0.045,0.305-0.05,0.409-0.271c0.042-0.082-0.01-0.153,0.148-0.134c0.117,0.015,0.1,0.137,0.236,0.114
							c0.039-0.164-0.013-0.211-0.146-0.266c-0.117-0.052-0.238-0.129-0.353-0.158c-0.032-0.196-0.295-0.129-0.426-0.221
							c-0.069-0.055-0.06-0.134-0.109-0.184c-0.037-0.047-0.124-0.111-0.181-0.156c-0.077-0.05-0.193-0.104-0.174-0.196
							c0.01-0.054,0.139-0.124,0.188-0.126c0.166-0.015,0.298,0.148,0.485,0.161c-0.052,0.409,0.683,0.396,0.855,0.553
							c0.156,0.142,0.042,0.359,0.085,0.53c0.049,0.159,0.218,0.253,0.347,0.32c-0.008,0.007-0.01,0.018-0.015,0.024
							c-0.025,0.005-0.04-0.002-0.055,0c-0.067,0.353,0.045,0.593,0.419,0.615c0.052-0.102,0.109-0.364,0.02-0.454
							c0.109,0.013,0.159,0.109,0.283,0.1c0.018-0.025,0.032-0.052,0.037-0.085c0.064-0.024,0.045-0.024,0.06-0.086
							c-0.171-0.092-0.399-0.23-0.343-0.446c0.102,0.047,0.283,0.181,0.285-0.042c0.177,0.015,0.37-0.013,0.526,0.057
							c0.007,0.024,0.012,0.047,0.012,0.069c-0.039-0.013-0.094,0.003-0.126-0.008c-0.015,0.027-0.018,0.075-0.015,0.104
							c0.064,0.029,0.129,0.05,0.2,0.062c-0.005,0.008-0.007,0.05-0.007,0.05c-0.075,0.021-0.151,0.013-0.224,0
							c-0.024,0.134-0.06,0.243,0.05,0.338c0.26,0.223,0.411-0.127,0.63-0.201c0.163-0.06,0.24-0.06,0.377-0.161
							c0.071-0.045,0.223-0.154,0.223-0.226c-0.161-0.09-0.443-0.003-0.572-0.109c-0.179-0.144,0.039-0.33,0.129-0.438
							c0.062-0.085,0.099-0.102,0.178-0.156c0.04-0.025,0.08-0.022,0.127-0.052c0.04-0.025,0.029-0.098,0.062-0.135
							c0.159-0.141,0.427-0.104,0.625-0.074c-0.034,0.375,0.285,0.444,0.601,0.402c0.153-0.021,0.324-0.043,0.479-0.027
							c0.094,0.01,0.153,0.042,0.237,0.062c0.662,0.142,1.19-0.261,1.837-0.392c0.717-0.142,1.438-0.106,1.912-0.714
							c0.158-0.201,0.23-0.427,0.377-0.63c0.119-0.169,0.319-0.409,0.394-0.603C88.648,31.055,88.629,30.856,88.534,30.717z
							 M82.046,30.481c-0.26,0.053-0.398,0.045-0.656-0.05c-0.077-0.026-0.253-0.044-0.1-0.121c0.062-0.029,0.25,0.027,0.32,0.032
							l-0.035-0.057C81.701,30.281,82.094,30.353,82.046,30.481z"/>
						<path opacity="0.15" clip-path="url(#SVGID_2_)" fill="#A4A3A3" d="M76.991,33.596c-0.042-0.01-0.097-0.01-0.137-0.015
							c-0.032,0.148-0.047,0.389-0.005,0.54c0.032,0.013,0.153-0.032,0.174-0.047c0.06-0.047,0.082-0.063,0.092-0.171
							c0.015-0.003,0.024,0.002,0.039,0c0.013-0.032,0.04-0.085,0.04-0.119c-0.003-0.074-0.04-0.058-0.055-0.119
							c-0.018-0.079,0.015-0.171,0.005-0.261c0.079-0.02,0.074-0.123,0.06-0.186c-0.024-0.008-0.06-0.013-0.082-0.008
							c-0.007,0.011-0.005,0.021-0.007,0.03c-0.05,0-0.1-0.003-0.151-0.01c-0.015,0.042-0.02,0.094-0.018,0.134
							c0.02,0,0.045,0.01,0.069,0.01c-0.005,0.079-0.013,0.156-0.024,0.235"/>
						<path opacity="0.15" clip-path="url(#SVGID_2_)" fill="#A4A3A3" d="M75.603,33.767c-0.002,0.018-0.002,0.032-0.01,0.052
							c-0.042-0.005-0.092-0.002-0.137-0.005c0.016,0.119,0.095,0.114,0.214,0.127c0.002-0.06,0.012-0.116,0.017-0.179
							c-0.017-0.002-0.047-0.01-0.066-0.01"/>
						<path opacity="0.15" clip-path="url(#SVGID_2_)" fill="#A4A2A2" d="M78.35,34.394c-0.211-0.021-0.429-0.054-0.654-0.069
							c-0.074,0.275,0.275,0.1,0.324,0.301c0.075-0.021,0.092,0.026,0.14,0.037c0.057,0.012,0.099,0.017,0.161,0.02
							c0.01-0.077,0.021-0.164,0.029-0.245"/>
						<path opacity="0.15" clip-path="url(#SVGID_2_)" fill="#A4A2A2" d="M73.316,33.33c0.233,0.025,0.035-0.282-0.097-0.275
							C73.036,33.061,73.213,33.32,73.316,33.33z"/>
						<path opacity="0.15" clip-path="url(#SVGID_2_)" fill="#A4A2A2" d="M81.29,27.744c0.102,0.008,0.218,0.006,0.285,0.08
							c-0.074,0-0.104,0.022-0.174,0.027c-0.064,0.005-0.119-0.013-0.181-0.003c-0.02,0.119-0.148,0.084-0.218,0.045
							c-0.018-0.008,0.015-0.055-0.008-0.072c-0.03-0.013-0.069-0.007-0.097-0.013c-0.052-0.005-0.106,0.016-0.164,0.008
							c0.016-0.034,0-0.082,0.013-0.116c-0.203-0.032-0.322-0.015-0.486,0.066c-0.141,0.075-0.344,0.146-0.518,0.129
							c-0.191-0.02-0.372-0.141-0.516-0.221c-0.129-0.076-0.354-0.062-0.519-0.086c-0.005-0.021-0.005-0.07,0-0.092
							c0.32-0.104,0.625-0.09,0.989-0.069c0.005-0.011,0.003-0.025,0.008-0.035c0.116-0.047,0.29-0.02,0.424-0.013
							c0.114,0.008,0.359,0.087,0.441,0.018c-0.01-0.015-0.021-0.034-0.025-0.052c0.198-0.013,0.353,0.099,0.556,0.111
							c0.045-0.04,0.137-0.035,0.206-0.015c0,0.012,0,0.02,0.005,0.034c0.179,0.03,0.667,0,0.759,0.179
							c-0.095-0.024-0.151,0.018-0.236,0.035c-0.074,0.015-0.166,0.01-0.27,0c-0.164-0.021-0.472-0.092-0.607-0.025
							c0.104,0.058,0.253,0.021,0.379,0.027c-0.01,0.015-0.012,0.037-0.024,0.052"/>
						<path opacity="0.15" clip-path="url(#SVGID_2_)" fill="#A4A2A2" d="M78.067,30.789c0.064-0.072,0.302-0.035,0.242,0.1
							c-0.034,0.094-0.263,0.108-0.354,0.084c-0.002-0.03,0.013-0.037,0.021-0.052"/>
						<path opacity="0.15" clip-path="url(#SVGID_2_)" fill="#A4A2A2" d="M86.293,29.822c-0.047,0.008-0.104,0.01-0.153-0.003
							c-0.005-0.024,0-0.06,0.005-0.081c0.045,0.007,0.089,0,0.124,0.021c-0.003-0.015-0.003-0.037-0.008-0.052
							c0.025-0.002,0.063,0.003,0.084,0.008c-0.002,0.018,0,0.037,0,0.052c0.064,0.01,0.127-0.008,0.194,0.015
							c0.02,0.016,0.042,0.055,0.062,0.072c-0.008,0.005-0.035,0.01-0.057,0.01c0,0.02-0.005,0.045-0.011,0.064
							c-0.071-0.002-0.198,0.015-0.198-0.074c-0.039-0.005-0.084-0.018-0.113-0.015"/>
						<path opacity="0.15" clip-path="url(#SVGID_2_)" fill="#A4A0A1" d="M87.815,30.08c-0.238-0.022-0.466-0.069-0.625-0.216
							c-0.097-0.082-0.176-0.077-0.29-0.119c-0.104-0.037-0.218-0.2-0.015-0.144c-0.005-0.015-0.005-0.057-0.015-0.079
							c0.153,0.012,0.287-0.022,0.441-0.025c0.02-0.042,0.029-0.084,0.037-0.131c0.037-0.003,0.097,0.005,0.131,0.015
							c-0.007,0.029,0.013,0.05,0.01,0.079c0.201,0.03,0.382,0.072,0.586,0.092c0.166,0.018,0.394,0.035,0.347,0.243
							c-0.193-0.002-0.888-0.272-0.89,0.074c0.178,0.079,0.23,0.124,0.337,0.288"/>
						<path opacity="0.15" clip-path="url(#SVGID_2_)" fill="#A4A2A2" d="M86.563,28.53c-0.005,0.063-0.067,0.063-0.132,0.037
							c-0.037-0.116-0.398-0.064-0.518-0.081c0.007-0.018,0-0.045,0.007-0.063c-0.066-0.013-0.136-0.037-0.205-0.045
							c0.01-0.017,0-0.042,0.005-0.062c-0.144-0.01-0.306-0.047-0.446-0.067c-0.005-0.037-0.01-0.076-0.013-0.108
							c0.114,0.015,0.221,0.017,0.332,0.032c0.003,0.015-0.01,0.027,0,0.039c0.106,0.021,0.219,0.022,0.327,0.042
							c0,0.016,0.008,0.035,0,0.05c0.045,0,0.097,0.018,0.14,0.022c-0.003,0.015-0.003,0.03-0.003,0.047
							c0.142,0.022,0.277,0.021,0.419,0.035c-0.01,0.002-0.027-0.003-0.032-0.003c-0.013,0.025-0.01,0.055-0.013,0.077
							c0.048,0,0.092,0.003,0.134,0.008c-0.007,0.017-0.007,0.047-0.012,0.066"/>
						<path opacity="0.15" clip-path="url(#SVGID_2_)" fill="#A49F9F" d="M87.646,29.062c-0.131-0.038-0.235-0.135-0.347-0.204
							c-0.109-0.069-0.24-0.102-0.332-0.2c0.126-0.053,0.31,0.074,0.419,0.139c0.069,0.04,0.409,0.161,0.237,0.25"/>
						<path opacity="0.15" clip-path="url(#SVGID_2_)" fill="#A3A0A0" d="M72.283,29.545c-0.027,0.017-0.069,0.024-0.092,0.044
							c0,0.013,0,0.013,0.002,0c-0.106-0.126-0.221,0.04-0.345,0.032c0,0.035-0.024,0.077-0.017,0.109
							c-0.253,0.063,0.168,0.213,0.25,0.226c0.203,0.027,0.367-0.04,0.565-0.05c0.198-0.007,0.434-0.094,0.6-0.178
							c0.045-0.025,0.196-0.098,0.226-0.13c0.077-0.084,0.05-0.186-0.076-0.176c0.01-0.027,0-0.074,0.01-0.106
							c-0.03-0.01-0.092-0.018-0.124-0.015c-0.025,0.106-0.182,0.05-0.261,0.044c0,0.027-0.015,0.064-0.015,0.092
							c-0.057-0.002-0.121-0.007-0.186-0.015c-0.04,0.058-0.069,0.008-0.129,0.022c-0.048,0.018-0.055,0.05-0.104,0.063
							c-0.069,0.017-0.218,0.047-0.288,0.024"/>
						<path opacity="0.15" clip-path="url(#SVGID_2_)" fill="#A3A09F" d="M71.397,29.545c0.104-0.008,0.117-0.09,0.188-0.14
							c0.053-0.034,0.104-0.026,0.164-0.054c0.144-0.058,0.161-0.124,0.337-0.112c0.005-0.012,0.025-0.047,0.025-0.062
							c-0.022,0-0.07-0.025-0.095-0.025c0-0.017,0-0.034,0.008-0.054c0.064-0.018,0.116-0.027,0.188-0.06
							c0.069-0.035,0.141-0.145,0.237-0.119c-0.032,0.074-0.027,0.163-0.042,0.245c-0.062-0.01-0.082,0.005-0.094,0.06
							c-0.063,0.013-0.053,0.005-0.092,0.057c-0.063-0.02-0.151,0.03-0.198,0.055c-0.085,0.035-0.174,0.06-0.243,0.119
							c-0.109,0.079-0.213,0.166-0.377,0.132"/>
						<path opacity="0.15" clip-path="url(#SVGID_2_)" fill="#A3A0A0" d="M72.63,28.733c0.047-0.01,0.095-0.017,0.144-0.017
							c-0.002-0.025,0.018-0.064,0.013-0.092c0.024,0.01,0.067,0,0.095,0.01c0.01-0.02,0.021-0.035,0.024-0.05
							c0.045,0,0.077,0,0.111,0.022c0.01,0,0.01,0,0.003-0.003c-0.03,0.013-0.037,0.021-0.077,0.025
							c-0.008,0.01,0.008,0.027-0.005,0.034c-0.087,0.025-0.221,0.23-0.357,0.146"/>
						<path opacity="0.15" clip-path="url(#SVGID_2_)" fill="#A3A0A0" d="M73.186,28.523c0,0.01,0,0.015-0.005,0.024
							c-0.047,0-0.095-0.008-0.149-0.013c0.005-0.017,0.005-0.032,0.005-0.044c0.033-0.003,0.06-0.008,0.087,0.005
							c-0.012-0.022-0.007-0.035-0.015-0.045c0.057,0.013,0.069-0.027,0.106-0.04c0.05-0.01,0.109,0.005,0.161,0.013
							c-0.012,0.027-0.034,0.037-0.074,0.03c0.003,0.021-0.018,0.049-0.018,0.069c-0.01-0.005-0.029,0.002-0.047-0.003
							c0,0.013-0.008,0.022-0.008,0.037c-0.059-0.005-0.113-0.015-0.171-0.01"/>
						<path opacity="0.15" clip-path="url(#SVGID_2_)" fill="#A19F9F" d="M79.726,30.596c-0.005-0.01-0.008-0.022-0.005-0.042
							c0.052,0.002,0.102,0.005,0.151,0.015c0.005,0.02,0,0.063-0.013,0.077c-0.005,0.002-0.018,0-0.029,0
							c0.012,0.02,0.005,0.024,0.012,0.047c-0.069-0.005-0.136-0.013-0.195-0.022c-0.008-0.027-0.01-0.055-0.013-0.079
							C79.664,30.591,79.698,30.591,79.726,30.596"/>
						<path opacity="0.15" clip-path="url(#SVGID_2_)" fill="#9E9E9F" d="M73.748,31.05c-0.037,0.007-0.111,0.01-0.161,0.005
							c-0.002,0.01-0.008,0.027-0.008,0.039c-0.017-0.002-0.034,0-0.042-0.002c0,0.047-0.037,0.066-0.084,0.057
							c-0.01,0.045,0.02,0.082,0.069,0.064c0,0.03-0.008,0.064-0.015,0.09c-0.025,0-0.063,0.01-0.09,0.002
							c0,0.02-0.012,0.047-0.012,0.067c-0.082,0.002-0.082,0.104-0.082,0.171c0.06-0.008,0.102,0.018,0.094,0.074
							c0.035,0.008,0.067,0.008,0.104,0c0-0.015,0.005-0.027,0-0.042c0.027,0.002,0.064,0.007,0.097,0.007
							c0.005-0.007,0.003-0.015,0.008-0.021c0.094,0.01,0.193-0.06,0.282-0.075c0.067-0.015,0.238-0.024,0.233-0.104
							c0.055-0.018,0.044-0.104,0.052-0.156c0.027-0.087,0.032-0.063,0.109-0.1c0.057-0.027,0.06-0.005,0.076-0.084
							c0.016-0.082-0.02-0.06-0.047-0.109c-0.022-0.066,0.008-0.069-0.066-0.097c-0.042-0.012-0.119-0.002-0.164,0
							c-0.097,0.016-0.216,0.021-0.258,0.097c-0.05,0.042-0.106,0.097-0.171,0.14"/>
						<path clip-path="url(#SVGID_2_)" fill="none" stroke="#566833" stroke-width="0.187" stroke-miterlimit="10" d="
							M66.328,36.771"/>
						<path clip-path="url(#SVGID_2_)" fill="none" stroke="#566833" stroke-width="0.187" stroke-miterlimit="10" d="M86.04,20.887
							"/>
						<path opacity="0.15" clip-path="url(#SVGID_2_)" fill="#A4A3A3" d="M85.076,46.924c-0.193,0.188-0.327,0.395-0.575,0.525
							c-0.251,0.132-0.63,0.117-0.764,0.425c-0.06,0.136,0.015,0.295,0.01,0.419c-0.003,0.055,0.005,0.163-0.015,0.213
							c-0.05,0.087-0.154,0.064-0.191,0.121c-0.181,0.251-0.106,0.551-0.084,0.849c0.171,0.002,0.139,0.163,0.314,0.178
							c0.142,0.011,0.166-0.074,0.278-0.158c0.181-0.148,0.319-0.293,0.456-0.481c0.151-0.215,0.258-0.438,0.354-0.691
							c0.069-0.171,0.131-0.691,0.384-0.632c0.05-0.3,0.074-0.568-0.106-0.789"/>
						<path clip-path="url(#SVGID_2_)" fill="none" d="M88.259,29.545c-0.287,0.086-0.602-0.077-0.853-0.199
							c-0.02,0.1-0.506,0.251-0.63,0.261c0.072,0.132,0.359,0.153,0.491,0.243c0.206,0.137,0.342,0.166,0.556,0.258
							c-0.132-0.09-0.325-0.181-0.261-0.382c0.201,0.018,0.414,0.034,0.62,0.034c0.106,0,0.23,0.064,0.287-0.054
							c0.063-0.112-0.039-0.179-0.141-0.182"/>
						<path opacity="0.15" clip-path="url(#SVGID_2_)" fill="#A4A3A3" d="M76.049,42.843c0.137-0.079,0.074-0.237,0.042-0.344
							c-0.052-0.137-0.099-0.172-0.238-0.219c-0.284-0.087-0.558-0.119-0.857-0.166c0.01-0.174,0.063-0.292-0.116-0.396
							c-0.119-0.074-0.33-0.082-0.474-0.067c-0.322,0.032-0.612,0.188-0.925,0.229c-0.303,0.042-0.498-0.193-0.838-0.139
							c-0.367,0.06-0.657,0.06-0.878-0.243c-0.092-0.129-0.151-0.206-0.285-0.295c-0.163-0.119-0.176-0.216-0.271-0.407
							c-0.139-0.282-0.29-0.488-0.468-0.748c-0.169-0.251-0.395-0.593,0.01-0.736c0.168-0.063,0.35-0.09,0.528-0.159
							c0.258-0.104,0.49-0.237,0.743-0.364c0.248-0.129,0.441-0.153,0.719-0.201c0.791-0.131,1.54-0.327,2.354-0.337
							c0.649-0.013,1.291,0.018,1.931,0.095c0.285,0.032,0.63,0.034,0.905,0.129c0.116,0.044,0.184,0.111,0.317,0.111
							c0.196,0.002,0.6-0.196,0.759-0.243c0.593-0.181,1.217-0.409,1.842-0.454c0.38-0.026,0.781,0.058,1.158,0.09
							c0.25,0.02,0.59-0.069,0.811,0.05c0.124,0.064,0.144,0.178,0.201,0.282c0.002,0.01,0.074,0.095,0.076,0.109
							c0.027,0.042-0.018,0.089,0.027,0.136c0.074,0.095,0.169-0.021,0.211,0.154c0.02,0.094-0.018,0.258-0.024,0.352
							c-0.008,0.243,0.079,0.354,0.193,0.554c0.223,0.049,0.161,0.314,0.2,0.476c0.032,0.129,0.114,0.238,0.176,0.359
							c0.14,0.032,0.117,0.1,0.174,0.179c0.025,0.029,0.025,0.062,0.063,0.099c0.039,0.042,0.084,0.016,0.124,0.042
							c0.131,0.107,0.146,0.293,0.347,0.301c0.01,0.087-0.027,0.193-0.01,0.28c0.027,0.158,0.124,0.203,0.211,0.329
							c0.005-0.012,0.005-0.037,0.01-0.044c0.126,0.037,0.205-0.053,0.342-0.043c0.159,0.013,0.275,0.085,0.444,0.072
							c0.228-0.022,0.553-0.258,0.763-0.181c-0.01,0.242,0.159,0.34,0.407,0.248c0.134-0.048,0.298-0.333,0.089-0.269
							c-0.029-0.042-0.037-0.039-0.02-0.097c0.121,0.013,0.218-0.021,0.354,0c-0.04,0.04-0.082,0.077-0.142,0.1
							c-0.027,0.26-0.034,0.446-0.295,0.612c-0.057,0.034-0.099,0.062-0.161,0.082c-0.099,0.044-1.11,0.206-1.041,0.193
							c-0.662,0.126-1.292,0.322-1.938,0.483c-0.414,0.102-0.836,0.179-1.247,0.314c-0.28,0.095-0.596,0.214-0.903,0.201
							c-0.31-0.018-0.421-0.042-0.806,0c-0.962,0.111-2.021,0.293-2.989,0.186c-0.204-0.02-0.367-0.049-0.561-0.102
							c-0.171-0.047-0.385-0.084-0.541-0.163c-0.21-0.106-0.282-0.271-0.443-0.402"/>
						<path opacity="0.15" clip-path="url(#SVGID_2_)" fill="#A4A3A3" d="M86.311,37.389c-0.089,0.169-0.035,0.546,0.179,0.561
							c0.01,0.05,0.055,0.062,0.069,0.097c0.013,0.029,0.005,0.099,0.02,0.126c0.045,0.077,0.127,0.072,0.111-0.062
							c0.03-0.003,0.09,0.008,0.122,0.018c-0.013,0.139-0.149,0.374,0.037,0.409c0.027,0.178,0.377,0.171,0.513,0.119
							c0.146-0.05,0.335-0.236,0.404-0.37c0.027-0.01,0.067-0.01,0.097-0.002c0.021,0.104-0.005,0.188,0.042,0.292
							c0.05,0.111,0.109,0.161,0.201,0.23c0.087,0.069,0.213,0.137,0.29,0.241c0.027,0.047,0.035,0.079,0.063,0.118
							c0.044,0.058,0.081,0.07,0.097,0.135c0.015,0.153-0.151,0.19-0.236,0.253c-0.039,0.037-0.057,0.089-0.099,0.129
							c-0.037,0.034-0.092,0.06-0.142,0.099c-0.181,0.148-0.33,0.392-0.543,0.511c-0.131,0.074-0.268,0.146-0.432,0.187
							c-0.193,0.044-0.307-0.085-0.361,0.168c-0.275,0.121-0.598,0.151-0.87,0.24c-0.04,0.013-0.114,0.08-0.151,0.1
							c-0.018,0.008-0.021,0.04-0.05,0.052c-0.057,0.025-0.094,0.008-0.153,0.013c-0.07,0.005-0.179-0.008-0.248,0.013
							c-0.109,0.037-0.119,0.097-0.233,0.111c-0.072,0.007-0.352-0.005-0.395-0.067c-0.047-0.069,0.016-0.313,0.003-0.406
							c-0.01-0.119-0.057-0.253-0.069-0.354c-0.01-0.144,0.039-0.184-0.067-0.313c-0.069-0.089-0.208-0.201-0.21-0.319
							c-0.124-0.043-0.09-0.231-0.124-0.33c-0.045-0.095-0.182-0.139-0.253-0.216c-0.085-0.106-0.053-0.184-0.077-0.332
							c-0.022-0.134-0.05-0.238-0.092-0.354c-0.02-0.063-0.037-0.122-0.055-0.179c-0.032-0.077-0.097-0.137-0.121-0.203
							c-0.058-0.154,0.01-0.322,0.168-0.38c0.095-0.039,0.219-0.024,0.317-0.027c0.354-0.021,0.682-0.158,1.024-0.24
							c0.184-0.045,0.377-0.104,0.558-0.134c0.114-0.02,0.625-0.142,0.719-0.022c0.027,0.03,0.032,0.06,0.003,0.1"/>
						<path opacity="0.15" clip-path="url(#SVGID_2_)" fill="#A4A2A2" d="M89.114,36.65c-0.211-0.03-0.396,0.027-0.6,0.074
							c-0.585,0.153-1.146,0.443-1.758,0.448c0.04,0.159,0.042,0.288,0.139,0.422c0.095,0.126,0.184,0.211,0.303,0.317
							c0.097,0.089,0.248,0.161,0.395,0.181c0.178,0.032,0.24-0.106,0.419-0.064c-0.013,0.035,0.002,0.085-0.011,0.124
							c0.119,0.077,0.142,0.226,0.293,0.288c0.069,0.029,0.158,0.029,0.243,0.052c0.079,0.024,0.136,0.084,0.205,0.114
							c0.211,0.092,0.432,0.106,0.66,0.144c0.179,0.024,0.389,0.032,0.553,0.079c-0.015,0.087,0.05,0.166,0.074,0.229
							c0.042,0.077,0.042,0.166,0.114,0.226c0.092,0.084,0.266,0.156,0.384,0.206c0.005,0.024,0,0.059-0.012,0.081
							c-0.214-0.071-0.124,0.156-0.064,0.253c0.027,0.055,0.047,0.104,0.102,0.146c0.007,0.005,0.148,0.079,0.148,0.079
							c0.069-0.002,0.203-0.198,0.253-0.186c0.094,0.018,0.037,0.282,0.027,0.347c-0.047,0.285,0.013,0.496,0.045,0.776
							c0.024,0.253,0.089,0.59,0.374,0.674c0.23,0.064,0.419,0.08,0.612-0.074c0.174-0.146-0.01-0.113,0.055-0.282
							c0.142,0,0.211-0.114,0.314-0.198c0.064-0.055,0.09-0.074,0.134-0.139c0.035-0.055,0.035-0.09,0.085-0.14
							c0.108-0.099,0.23-0.146,0.329-0.26c0.103-0.119,0.129-0.179,0.149-0.332c0.146-0.005,0.235,0.069,0.354,0.005
							c0.042-0.021,0.022-0.114,0.111-0.087c0.062,0.024,0.047,0.094,0.05,0.148c0.022,0.208,0.109,0.396,0.151,0.61
							c0.02,0.104,0.039,0.218,0.032,0.329c0,0.107-0.09,0.395-0.021,0.477c0.127,0.124,0.198-0.042,0.193-0.137
							c-0.015-0.087-0.121-0.232,0.011-0.277c0.099,0.121-0.07,0.277,0.129,0.332c0.232,0.069,0.2-0.134,0.2-0.268
							c0-0.342,0.1-0.712,0.139-1.062c0.032-0.282,0.055-0.506-0.01-0.788c-0.057-0.248,0.01-0.481-0.024-0.727
							c-0.027-0.238-0.129-0.464-0.154-0.701c-0.015-0.145,0.04-0.285,0.021-0.429c-0.021-0.132-0.079-0.251-0.129-0.375
							c-0.042-0.111-0.021-0.186-0.037-0.292c-0.04-0.206-0.204-0.397-0.251-0.605c-0.042-0.169-0.029-0.317-0.087-0.479
							c-0.076-0.23-0.186-0.585-0.401-0.719c-0.151-0.092-0.374-0.082-0.548-0.1c-0.282-0.032-0.61-0.136-0.895-0.094
							c-0.149,0.024-0.33,0.062-0.467,0.114c-0.216,0.076-0.426,0.221-0.622,0.334c-0.266,0.159-0.416,0.142-0.714,0.211
							c-0.472,0.102-0.938,0.191-1.406,0.303c-0.166,0.037-0.389,0.104-0.53,0.186c-0.228,0.134-0.396,0.392-0.572,0.588
							c-0.069,0.072-0.188,0.176-0.271,0.211c-0.137,0.066-0.353,0.082-0.503,0.141c-0.095,0.04-0.177,0.098-0.271,0.14
							c0.074,0.017,0.161,0.005,0.221-0.032c0,0.012,0,0.027-0.003,0.037"/>
						<path opacity="0.15" clip-path="url(#SVGID_2_)" fill="#A4A2A2" d="M76.2,47.254c-0.06,0.313,0.25,0.64,0.404,0.888
							c0.168,0.287,0.089,0.603,0.158,0.917c0.06,0.298,0.38,0.585,0.533,0.868c0.067,0.121,0.139,0.285,0.153,0.414
							c0.035,0.188-0.039,0.285,0.146,0.401c0.1,0.064,0.414,0.124,0.543,0.092c0.058-0.02,0.085-0.095,0.149-0.111
							c0.092-0.027,0.268,0.032,0.374,0.042c0.179,0.02,0.319,0.02,0.485-0.008c0.14-0.024,0.397,0.022,0.519-0.034
							c0.069-0.032,0.084-0.112,0.139-0.159c0.063-0.045,0.146-0.074,0.211-0.114c0.114-0.071,0.229-0.131,0.357-0.193
							c0.237-0.116,0.527-0.3,0.553-0.563c0.018-0.131-0.1-0.293,0.064-0.372c0.114-0.055,0.352,0.079,0.483,0.072
							c0.116-0.191,0.188-0.268,0.211-0.498c0.017-0.169,0-0.145-0.064-0.264c-0.045-0.079-0.109-0.158-0.102-0.247
							c0.064-0.008,0.123-0.016,0.183-0.025c0-0.052,0.04-0.087,0.048-0.139c0.156-0.042,0.258-0.166,0.398-0.221
							c0.174-0.06,0.365-0.092,0.541-0.184c0.188-0.089,0.213-0.141,0.317-0.297c0.052-0.077,0.087-0.05,0.106-0.154
							c0.027-0.087-0.042-0.206-0.037-0.297c0-0.167,0.066-0.313,0.109-0.452c0.066-0.188,0.049-0.226-0.063-0.398
							c-0.079-0.132-0.124-0.23-0.121-0.385c0.005-0.171,0.076-0.432-0.072-0.55c-0.064-0.055-0.233-0.043-0.322-0.048
							c-0.543-0.062-1.062-0.01-1.604,0.048c-0.694,0.079-1.389,0.168-2.081,0.24c-0.545,0.06-1.22,0.171-1.708,0.426
							c-0.396,0.211-1.023,0.699-1.017,1.193"/>
						<path opacity="0.15" clip-path="url(#SVGID_2_)" fill="#A4A2A2" d="M66.764,44.911c0.003-0.156,0.085-0.263,0.119-0.396
							c0.037-0.149,0.027-0.296,0.055-0.444c0.03-0.176-0.007-0.305-0.045-0.464c-0.044-0.168-0.01-0.163,0.075-0.31
							c0.161-0.285,0.248-0.516,0.282-0.86c0.02-0.146,0.064-0.277-0.022-0.399c-0.06-0.074-0.245-0.208-0.335-0.258
							c0.064-0.258-0.232-0.334-0.392-0.426c-0.084-0.043-0.213-0.112-0.263-0.179c-0.076-0.095-0.055-0.196-0.144-0.288
							c-0.092-0.106-0.161-0.102-0.218-0.232c-0.04-0.102-0.053-0.266-0.055-0.372c-0.01-0.181,0.084-0.615-0.127-0.717
							c-0.168,0.271-0.129,0.769-0.079,1.044c0.029,0.233-0.146,0.486-0.082,0.719c0.119,0.451,0.261,0.801,0.29,1.272
							c0.03,0.456,0.29,0.984,0.395,1.413c0.079,0.35,0.319,0.577,0.565,0.877"/>
					</g>
					<path fill="#9CBF3D" d="M114.629,42.399c-0.296,0.005-0.725-0.208-1.017-0.277c-3.253-0.769-6.704-0.863-10.029-1.128
						c-0.949-0.075-1.901-0.146-2.851-0.214c-1.232-0.084-2.472-0.168-3.707-0.243c-1.241-0.074-2.488-0.148-3.741-0.193
						c-1.44-0.052-2.886-0.069-4.331-0.039c-0.848,0.018-1.698,0.047-2.551,0.099c-4.153,0.248-8.472,0.697-12.545,1.537
						c-2.095,0.432-4.2,0.868-6.188,1.649c-1.79,0.701-3.533,1.455-4.785,2.938c-2.623,3.111,1.079,7.458,3.962,9.419
						c0.815,0.555,1.714,1.044,2.623,1.44c2.623,1.138,5.826,2.033,8.688,2.254c4.028,0.302,7.874-0.593,11.489-2.445
						c1.075-0.55,2.109-1.178,3.081-1.898c2.976-2.215,4.825-4.937,6.156-8.309c0.469-1.207,0.828-2.462,1.115-3.724l-6.542,0.245
						c0,0-2.894,8.869-11.928,10.012c0,0-4.84,0.925-8.99-1.748c0,0-6.037-3.401,5.95-6.451c4.589-1.168,9.292-1.904,14.025-2.348
						c4.708-0.438,9.461-0.6,14.191-0.62C109.348,42.343,111.99,42.446,114.629,42.399z"/>
					<path fill="#9CBF3D" d="M122.386,42.902c0.025-0.314-0.885-0.426-0.885-0.426l-1.85-0.122l-0.3-0.062l-0.084-0.064
						l-0.238-0.353l0.027,0.003l0.352-0.063l0.003-0.049c0.024,0.002,0.047-0.064,0.055-0.146c0.007-0.084-0.013-0.154-0.035-0.156
						l0.003-0.03l-0.61,0.03h-0.072l-0.01-0.013l-1.529-2.117c-0.345-0.124-0.3,0.176-0.3,0.176l0.729,2.192l-0.029,0.456h-1.342
						l-0.359-0.035l-0.662-0.835l-0.275-0.018l0.124,0.927l-0.527,0.193l0.513,0.188l-0.265,0.938l0.3,0.02l0.682-0.733l0.55,0.034
						l1.205,0.117l-0.042,0.674c-0.184,0.315-0.35,0.633-0.528,0.95c-0.055,0.097-0.743,1.172-0.406,1.199
						c0.191,0.013,0.367-0.25,0.483-0.366c0.514-0.526,1.009-1.071,1.527-1.595l0.632,0.027c0.027,0.005,0.048-0.062,0.055-0.146
						c0.01-0.087-0.007-0.153-0.034-0.156c-0.003,0-0.005,0.005-0.018,0.011l-0.305-0.075c0.06-0.057,0.111-0.113,0.171-0.176
						c0.022-0.02,0.148-0.186,0.179-0.181l2.179,0.141C122.421,43.326,122.386,42.902,122.386,42.902z"/>
					<path fill="#2CA6DE" d="M37.048,34.733c-0.052,0.313,0.843,0.506,0.843,0.506l1.832,0.283l0.293,0.089l0.074,0.069l0.201,0.374
						l-0.018-0.007l-0.359,0.034l-0.008,0.045c-0.024-0.003-0.055,0.062-0.066,0.144c-0.018,0.087-0.008,0.156,0.015,0.156v0.035
						l0.607,0.022l0.074,0.005l0.005,0.015l1.321,2.241c0.34,0.153,0.32-0.146,0.32-0.146l-0.519-2.246l0.074-0.451l1.329,0.116
						l0.353,0.067l0.59,0.893l0.263,0.042l-0.027-0.935l0.543-0.144l-0.491-0.233l0.343-0.912l-0.293-0.048l-0.749,0.672
						l-0.532-0.086l-1.203-0.224l0.114-0.664c0.206-0.3,0.401-0.598,0.607-0.897c0.064-0.095,0.855-1.104,0.519-1.16
						c-0.184-0.03-0.393,0.215-0.514,0.324c-0.563,0.479-1.105,0.97-1.671,1.448l-0.627-0.087c-0.027-0.003-0.058,0.06-0.069,0.146
						c-0.016,0.081-0.005,0.151,0.02,0.153c0.005,0,0.02,0,0.022-0.005l0.297,0.1c-0.066,0.052-0.129,0.106-0.188,0.156
						c-0.026,0.021-0.168,0.173-0.198,0.171l-2.154-0.338C37.053,34.31,37.048,34.733,37.048,34.733z"/>
					<path fill="#2CA6DE" d="M86.177,19.689c0,0,7.274,2.383,7.189,6.104c0,0,0.585,2.956-6.646,5.797c0,0-5.462,2.393-13.829,3.441
						c0,0,18.78-2.797,15.131-7.418c0,0-4.284-4.532-12.714-2.093c0,0-6.411,2.043-9.263,9.416l-6.527,0.137
						c0,0,1.924-12.144,14.575-15.521C74.093,19.553,79.445,17.642,86.177,19.689z"/>
					
						<linearGradient id="SVGID_3_" gradientUnits="userSpaceOnUse" x1="92.416" y1="80.2725" x2="125.0977" y2="80.2725" gradientTransform="matrix(0.994 0.1093 -0.1093 0.994 -16.1864 -40.7764)">
						<stop  offset="0" style="stop-color:#687F37"/>
						<stop  offset="0.399" style="stop-color:#71873B"/>
						<stop  offset="0.7291" style="stop-color:#7B953C"/>
						<stop  offset="1" style="stop-color:#4F5F33"/>
					</linearGradient>
					<path fill="url(#SVGID_3_)" d="M73.721,58.941c0,0-7.267-2.381-7.194-6.09c0,0-0.573-2.945,6.651-5.771
						c0,0,5.46-2.377,13.822-3.419c0,0-18.756,2.663-15.114,7.271c0,0,4.287,4.521,12.722,2.096c0,0,6.411-2.098,9.265-9.443
						l6.54-0.241c0,0-1.958,12.392-14.61,15.741C85.802,59.085,80.452,60.989,73.721,58.941z"/>
					<path fill="#2CA6DE" d="M44.788,35.946c0.29-0.005,0.717,0.21,1.012,0.28c3.253,0.766,6.706,0.859,10.033,1.123
						c0.947,0.076,1.899,0.148,2.849,0.215c1.234,0.087,2.467,0.167,3.704,0.243c1.244,0.079,2.494,0.151,3.738,0.193
						c1.446,0.05,2.892,0.069,4.332,0.04c0.853-0.018,1.705-0.045,2.551-0.097c4.155-0.248,8.469-0.696,12.548-1.54
						c2.092-0.429,4.197-0.872,6.19-1.65c1.785-0.702,3.533-1.453,4.785-2.938c2.618-3.104-1.086-7.457-3.965-9.413
						c-0.815-0.554-1.711-1.049-2.62-1.446c-2.631-1.138-5.829-2.032-8.688-2.253c-4.031-0.306-7.872,0.59-11.491,2.441
						c-1.073,0.559-2.107,1.183-3.077,1.902c-2.979,2.216-4.827,4.938-6.155,8.313c-0.479,1.202-0.831,2.459-1.118,3.722
						l6.547-0.246c0,0,2.887-8.868,11.918-10.009c0,0,4.845-0.925,8.995,1.751c0,0,6.037,3.398-5.95,6.446
						c-4.595,1.172-9.3,1.906-14.022,2.348c-4.716,0.441-9.461,0.598-14.199,0.622C50.066,36,47.421,35.896,44.788,35.946z"/>
					
						<linearGradient id="SVGID_4_" gradientUnits="userSpaceOnUse" x1="83.4268" y1="57.7266" x2="115.5557" y2="57.7266" gradientTransform="matrix(0.994 0.1093 -0.1093 0.994 -16.1864 -40.7764)">
						<stop  offset="0" style="stop-color:#314D8F"/>
						<stop  offset="0.399" style="stop-color:#327FBA"/>
						<stop  offset="0.7291" style="stop-color:#317FBC"/>
						<stop  offset="1" style="stop-color:#2A4A91"/>
					</linearGradient>
					<path fill="url(#SVGID_4_)" d="M85.658,19.635c0,0,7.15,2.348,7.068,6.024c0,0,0.565,2.919-6.537,5.732
						c0,0-5.462,2.231-13.684,3.275c0,0,18.545-2.641,14.963-7.205c0,0-4.208-4.473-12.503-2.061c0,0-6.3,2.016-9.109,9.305
						l-6.424,0.142c0,0,1.904-12.002,14.346-15.339C73.778,19.509,79.041,17.614,85.658,19.635z"/>
				</g>
			</g>
		</g>
		<g>
			<linearGradient id="SVGID_5_" gradientUnits="userSpaceOnUse" x1="18.7783" y1="66.3428" x2="22.7305" y2="66.3428">
				<stop  offset="0" style="stop-color:#687F37"/>
				<stop  offset="0.399" style="stop-color:#71873B"/>
				<stop  offset="0.7291" style="stop-color:#7B953C"/>
				<stop  offset="1" style="stop-color:#4F5F33"/>
			</linearGradient>
			<path fill="url(#SVGID_5_)" d="M20.898,68.047c0.603,0,1.059-0.153,1.365-0.453c0.313-0.303,0.467-0.67,0.467-1.111
				c-0.008-0.49-0.193-0.917-0.568-1.289c-0.374-0.366-0.89-0.555-1.56-0.555c-0.609,0-1.068,0.158-1.381,0.466
				c-0.302,0.305-0.453,0.677-0.443,1.115c-0.01,0.483,0.174,0.907,0.553,1.274C19.703,67.863,20.229,68.047,20.898,68.047z"/>
			<linearGradient id="SVGID_6_" gradientUnits="userSpaceOnUse" x1="43.7959" y1="63.1543" x2="47.2998" y2="63.1543">
				<stop  offset="0" style="stop-color:#687F37"/>
				<stop  offset="0.399" style="stop-color:#71873B"/>
				<stop  offset="0.7291" style="stop-color:#7B953C"/>
				<stop  offset="1" style="stop-color:#4F5F33"/>
			</linearGradient>
			<path fill="url(#SVGID_6_)" d="M45.678,64.65c0.528,0,0.933-0.129,1.2-0.392c0.28-0.263,0.422-0.587,0.422-0.975
				c0-0.436-0.174-0.815-0.511-1.143c-0.343-0.325-0.809-0.483-1.403-0.483c-0.523,0-0.912,0.129-1.19,0.392
				c-0.275,0.266-0.406,0.59-0.399,0.975c0,0.429,0.169,0.808,0.506,1.136C44.635,64.492,45.096,64.65,45.678,64.65z"/>
			<linearGradient id="SVGID_7_" gradientUnits="userSpaceOnUse" x1="10.8867" y1="77.6982" x2="54.9678" y2="77.6982">
				<stop  offset="0" style="stop-color:#687F37"/>
				<stop  offset="0.399" style="stop-color:#71873B"/>
				<stop  offset="0.7291" style="stop-color:#7B953C"/>
				<stop  offset="1" style="stop-color:#4F5F33"/>
			</linearGradient>
			<path fill="url(#SVGID_7_)" d="M50.748,70.821l0.015,8.755c-0.076,0.981-0.617,1.51-1.626,1.579
				c-0.786-0.03-1.234-0.399-1.356-1.116v-9.245h-4.135l-0.043,9.161c-0.129,0.756-0.783,1.188-1.961,1.292l-1.715-0.016
				l-0.038-10.397l-4.149-0.013v7.363c-0.06,1.218-0.496,2.068-1.319,2.544c-0.82,0.477-1.69,0.672-2.623,0.588H30.81v-7.274
				c-0.337-1.524-0.892-2.623-1.671-3.3h-4.063c0.982,1.051,1.522,2.088,1.617,3.116c0.265,1.482,0.084,2.881-0.546,4.195
				c-1.175,2.033-2.846,3.081-5.025,3.156h-0.714c-2.407-0.149-4.147-1.292-5.238-3.419c-0.519-1.456-0.491-2.924,0.074-4.403
				c0.151-0.818,0.761-1.703,1.834-2.646h-4.589c-1.666,2.383-2.03,4.906-1.101,7.562c0.786,2.244,2.362,4.019,4.718,5.325
				c2.187,1.086,4.862,1.312,8.021,0.665c1.215-0.372,2.154-0.811,2.809-1.31l0.018,1.456h3.857v-0.025l3.704-0.013
				c0.813-0.086,1.775-0.56,2.884-1.418l0.02,1.443l5.529-0.013c1.017-0.052,1.985-0.396,2.898-1.038
				c0.729,0.736,2.022,1.135,3.885,1.197c0.788,0,1.69-0.154,2.702-0.461c0.947-0.395,1.624-1.074,2.035-2.036
				c0.285-0.851,0.451-2.065,0.501-3.645l-0.027-7.611H50.748z"/>
			<linearGradient id="SVGID_8_" gradientUnits="userSpaceOnUse" x1="46.2236" y1="66.8066" x2="50.1875" y2="66.8066">
				<stop  offset="0" style="stop-color:#687F37"/>
				<stop  offset="0.399" style="stop-color:#71873B"/>
				<stop  offset="0.7291" style="stop-color:#7B953C"/>
				<stop  offset="1" style="stop-color:#4F5F33"/>
			</linearGradient>
			<path fill="url(#SVGID_8_)" d="M46.224,66.666c-0.008,0.491,0.174,0.92,0.548,1.289c0.377,0.367,0.902,0.554,1.579,0.554
				c0.603,0,1.063-0.151,1.363-0.454c0.313-0.305,0.467-0.675,0.474-1.11c0-0.501-0.188-0.933-0.558-1.297
				c-0.382-0.362-0.899-0.543-1.569-0.543c-0.625,0-1.083,0.148-1.389,0.451C46.36,65.858,46.216,66.23,46.224,66.666z"/>
			<linearGradient id="SVGID_9_" gradientUnits="userSpaceOnUse" x1="40.9824" y1="66.8584" x2="44.9404" y2="66.8584">
				<stop  offset="0" style="stop-color:#687F37"/>
				<stop  offset="0.399" style="stop-color:#71873B"/>
				<stop  offset="0.7291" style="stop-color:#7B953C"/>
				<stop  offset="1" style="stop-color:#4F5F33"/>
			</linearGradient>
			<path fill="url(#SVGID_9_)" d="M43.103,68.561c0.603,0,1.063-0.148,1.381-0.454c0.314-0.302,0.469-0.674,0.456-1.11
				c0.013-0.491-0.176-0.922-0.558-1.287c-0.387-0.371-0.918-0.553-1.587-0.553c-0.601,0-1.057,0.151-1.352,0.456
				c-0.303,0.313-0.461,0.68-0.461,1.123c0,0.479,0.19,0.903,0.561,1.272C41.92,68.375,42.433,68.561,43.103,68.561z"/>
			<linearGradient id="SVGID_10_" gradientUnits="userSpaceOnUse" x1="58.0234" y1="80.7158" x2="71.1602" y2="80.7158">
				<stop  offset="0" style="stop-color:#687F37"/>
				<stop  offset="0.399" style="stop-color:#71873B"/>
				<stop  offset="0.7291" style="stop-color:#7B953C"/>
				<stop  offset="1" style="stop-color:#4F5F33"/>
			</linearGradient>
			<path fill="url(#SVGID_10_)" d="M68.656,72.361c-2.175-0.791-4.279-0.851-6.325-0.187c-1.78,0.826-3.002,1.909-3.662,3.248
				c-0.696,1.297-0.828,3.144-0.401,5.549c0.694,1.743,2.115,2.871,4.245,3.377l0.751,0.079h0.654
				c1.188-0.042,2.702-0.694,4.542-1.956c-0.828,1.286-1.431,2.075-1.81,2.362c-0.142,0.106-0.303,0.221-0.488,0.345
				c-0.683,0.509-1.637,0.905-2.884,1.186l-4.108,0.406l3.134,2.942c2.42-0.066,4.223-0.371,5.42-0.907
				c1.708-0.848,2.818-2.053,3.34-3.614c0.076-0.764,0.108-1.582,0.094-2.46v-6.416C71.011,74.493,70.173,73.174,68.656,72.361z
				 M67.178,80.436l-1.864-0.79c0,0.007-0.188,0.237-0.563,0.704c-0.382,0.461-0.92,0.664-1.624,0.607
				c-1.104-0.392-1.574-1.22-1.408-2.473c0.142-1.088,0.6-1.94,1.379-2.561c1.152-0.851,2.229-1.088,3.247-0.709
				c0.546,0.19,0.833,0.6,0.863,1.223L67.178,80.436z"/>
			<linearGradient id="SVGID_11_" gradientUnits="userSpaceOnUse" x1="73.6143" y1="76.4355" x2="77.9854" y2="76.4355">
				<stop  offset="0" style="stop-color:#687F37"/>
				<stop  offset="0.399" style="stop-color:#71873B"/>
				<stop  offset="0.7291" style="stop-color:#7B953C"/>
				<stop  offset="1" style="stop-color:#4F5F33"/>
			</linearGradient>
			<polygon fill="url(#SVGID_11_)" points="73.614,84.76 77.985,84.76 77.985,68.111 73.624,68.111 			"/>
			<linearGradient id="SVGID_12_" gradientUnits="userSpaceOnUse" x1="73.5371" y1="63.9385" x2="78.0244" y2="63.9385">
				<stop  offset="0" style="stop-color:#687F37"/>
				<stop  offset="0.399" style="stop-color:#71873B"/>
				<stop  offset="0.7291" style="stop-color:#7B953C"/>
				<stop  offset="1" style="stop-color:#4F5F33"/>
			</linearGradient>
			<path fill="url(#SVGID_12_)" d="M76.55,65.016c-0.169-0.013-0.369-0.055-0.612-0.127c-0.293-0.238-0.437-0.508-0.446-0.815
				c-0.01-0.548,0.308-0.918,0.947-1.094c0.35-0.114,0.771-0.114,1.262-0.01c0.272,0.077,0.332,0.074,0.174-0.015l0.01-0.025
				l0.129-0.55l-0.459-0.144c-0.58-0.135-1.141-0.187-1.69-0.161c-0.238,0.026-0.464,0.064-0.665,0.106
				c-0.493,0.198-0.785,0.57-0.877,1.103c-0.038,0.333,0.126,0.873,0.488,1.619h-1.272v0.905h4.487v-0.773H77.37
				C76.991,65.035,76.716,65.027,76.55,65.016z"/>
			<linearGradient id="SVGID_13_" gradientUnits="userSpaceOnUse" x1="87.7412" y1="77.585" x2="111.542" y2="77.585">
				<stop  offset="0" style="stop-color:#687F37"/>
				<stop  offset="0.399" style="stop-color:#71873B"/>
				<stop  offset="0.7291" style="stop-color:#7B953C"/>
				<stop  offset="1" style="stop-color:#4F5F33"/>
			</linearGradient>
			<path fill="url(#SVGID_13_)" d="M107.069,79.261c-0.111,1.272-1.215,1.932-3.303,1.971h-2.365l-0.012-4.452
				c-0.03-1.403-0.414-2.692-1.146-3.865c-0.942-1.213-2.447-1.937-4.508-2.172h-1.381c-2.219,0.132-4.088,0.61-5.61,1.445
				l0.045,4.155c0.721-0.553,1.539-1.141,2.446-1.761c0.757-0.431,1.458-0.703,2.118-0.83c0.687-0.131,1.376-0.146,2.063-0.052
				c0.513,0.037,0.941,0.213,1.267,0.54c0.434,0.454,0.68,1.277,0.731,2.457l-0.013,2.145c-0.06,0.851-0.218,1.426-0.485,1.729
				c-0.268,0.3-0.796,0.537-1.602,0.701h-7.574v3.131l8.704,0.025c1.099-0.02,2.177-0.434,3.238-1.234l0.005,1.222h0.53h1.186h4.874
				c3.052-0.322,4.797-2.109,5.249-5.362l0.015-8.271h-4.473V79.261z"/>
			<linearGradient id="SVGID_14_" gradientUnits="userSpaceOnUse" x1="104.3301" y1="66.292" x2="108.2891" y2="66.292">
				<stop  offset="0" style="stop-color:#687F37"/>
				<stop  offset="0.399" style="stop-color:#71873B"/>
				<stop  offset="0.7291" style="stop-color:#7B953C"/>
				<stop  offset="1" style="stop-color:#4F5F33"/>
			</linearGradient>
			<path fill="url(#SVGID_14_)" d="M106.442,67.995c0.607,0,1.061-0.148,1.378-0.454c0.315-0.3,0.469-0.672,0.469-1.11
				c0-0.491-0.188-0.92-0.567-1.286c-0.382-0.372-0.902-0.556-1.567-0.556c-0.609,0-1.061,0.151-1.361,0.458
				c-0.305,0.311-0.458,0.683-0.463,1.119c0.005,0.485,0.198,0.904,0.567,1.281C105.27,67.812,105.785,67.995,106.442,67.995z"/>
			<linearGradient id="SVGID_15_" gradientUnits="userSpaceOnUse" x1="113.9893" y1="73.6924" x2="118.3477" y2="73.6924">
				<stop  offset="0" style="stop-color:#687F37"/>
				<stop  offset="0.399" style="stop-color:#71873B"/>
				<stop  offset="0.7291" style="stop-color:#7B953C"/>
				<stop  offset="1" style="stop-color:#4F5F33"/>
			</linearGradient>
			<polygon fill="url(#SVGID_15_)" points="113.989,84.415 118.348,84.415 118.348,62.97 114.006,62.97 			"/>
			<linearGradient id="SVGID_16_" gradientUnits="userSpaceOnUse" x1="135.6006" y1="88.2637" x2="139.5537" y2="88.2637">
				<stop  offset="0" style="stop-color:#687F37"/>
				<stop  offset="0.399" style="stop-color:#71873B"/>
				<stop  offset="0.7291" style="stop-color:#7B953C"/>
				<stop  offset="1" style="stop-color:#4F5F33"/>
			</linearGradient>
			<path fill="url(#SVGID_16_)" d="M137.425,86.56c-0.604,0-1.063,0.151-1.365,0.451c-0.308,0.308-0.459,0.675-0.459,1.116
				c0,0.488,0.186,0.917,0.561,1.286c0.379,0.37,0.902,0.554,1.569,0.554c0.604,0,1.059-0.154,1.366-0.454
				c0.302-0.303,0.456-0.672,0.456-1.11c0.012-0.511-0.177-0.942-0.559-1.302S138.087,86.56,137.425,86.56z"/>
			<linearGradient id="SVGID_17_" gradientUnits="userSpaceOnUse" x1="120.1025" y1="80.1816" x2="148.5469" y2="80.1816">
				<stop  offset="0" style="stop-color:#687F37"/>
				<stop  offset="0.399" style="stop-color:#71873B"/>
				<stop  offset="0.7291" style="stop-color:#7B953C"/>
				<stop  offset="1" style="stop-color:#4F5F33"/>
			</linearGradient>
			<path fill="url(#SVGID_17_)" d="M146.96,74.818c-0.939-1.359-2.072-2.383-3.396-3.077c-1.038-0.603-2.559-0.937-4.569-0.999
				c-2.563-0.018-4.611,0.434-6.163,1.354l-0.322,0.224v4.328c0.992-0.764,1.89-1.346,2.686-1.737
				c1.254-0.561,2.409-0.846,3.468-0.854c0.891,0.069,1.706,0.216,2.439,0.435c0.972,0.366,1.753,0.957,2.349,1.772
				c0.843,1.229,1.246,2.554,1.194,3.984c0.1,0.659-0.327,1.014-1.279,1.068h-15.017V70.821l-4.334,0.013l0.042,12.316
				c-0.017,1.221-0.344,2.023-0.969,2.408c-0.628,0.389-1.563,0.645-2.805,0.764l-0.181-0.013l1.961,3.313
				c1.738,0,3.188-0.399,4.344-1.195c0.984-0.885,1.537-1.766,1.659-2.641c0.153-0.466,0.235-0.922,0.265-1.371h16.415
				c2.415-0.015,3.68-1.16,3.801-3.429v-1.45C148.336,77.572,147.806,76.003,146.96,74.818z"/>
		</g>
	</g>
	<g>
		<rect x="44.26" y="100.094" fill="#727172" width="1.352" height="1.381"/>
		<path fill="#727172" d="M64.899,108.261h-1.968h-0.146h-1.139c-0.421-0.022-0.73-0.142-0.922-0.353
			c-0.188-0.213-0.285-0.622-0.285-1.22v-3.887h-1.152v3.887c0,0.511-0.114,0.9-0.34,1.171c-0.23,0.268-0.509,0.401-0.831,0.401
			c-0.31,0-0.577-0.127-0.815-0.377c-0.238-0.253-0.352-0.585-0.352-1.002v-4.08h-1.195v3.887c0,0.511-0.114,0.9-0.342,1.171
			c-0.229,0.268-0.501,0.401-0.831,0.401c-0.3,0-0.575-0.127-0.825-0.377c-0.241-0.253-0.362-0.585-0.362-1.002v-4.08h-1.158v3.887
			c0,0.585-0.102,0.989-0.314,1.205c-0.211,0.214-0.54,0.335-0.989,0.367h-1.123h-0.142H47.29c0.223-0.134,0.419-0.411,0.567-0.838
			s0.229-0.86,0.229-1.312c0-1.017-0.269-1.813-0.796-2.393c-0.531-0.578-1.312-0.868-2.331-0.868h-0.01
			c-1.026,0-1.805,0.29-2.338,0.868c-0.53,0.58-0.793,1.376-0.793,2.393c0,0.451,0.079,0.885,0.235,1.304
			c0.151,0.422,0.347,0.702,0.558,0.846h-2.484H39.98h-7.802h-0.144h-7.8h-0.142H51.37h-0.141h-7.798h-0.146h-7.798h-0.151h-7.795
			h-0.146H17.261h-0.153h-1.089v-5.459h-1.183v6.376c0,0.722-0.305,1.215-0.89,1.49c-0.595,0.275-1.497,0.411-2.712,0.411h-0.293
			v1.181h1.234c2.484,0,3.769-0.986,3.843-2.968h1.089h0.153h10.136h0.146h7.795h0.151h7.798h0.146h7.798h0.141H24.094h0.142h7.8
			h0.144h7.802h0.146h9.54h0.142h1.321c0.685,0,1.229-0.28,1.646-0.836c0.446,0.588,1.039,0.886,1.77,0.886
			c0.72,0,1.31-0.322,1.761-0.965c0.488,0.643,1.143,0.965,1.969,0.965c0.729,0,1.291-0.272,1.693-0.818
			c0.156,0.208,0.275,0.352,0.372,0.441c0.089,0.087,0.226,0.161,0.408,0.23c0.191,0.064,0.427,0.097,0.722,0.097h1.314h0.146h3.123
			v-9.474h-1.155V108.261z M45.075,108.261h-0.25c-1.2,0-1.803-0.717-1.803-2.149c0-1.476,0.64-2.212,1.937-2.212
			c1.287,0,1.924,0.736,1.924,2.212C46.883,107.544,46.28,108.261,45.075,108.261z"/>
		<rect x="67.823" y="99.818" fill="#727172" width="1.152" height="9.474"/>
		<path fill="#727172" d="M73.674,102.523c-1.173,0-2.03,0.278-2.589,0.836c-0.548,0.558-0.827,1.408-0.827,2.556
			c0,1.183,0.268,2.041,0.798,2.573c0.528,0.538,1.398,0.804,2.608,0.804h1.985v0.704c0,0.282-0.148,0.523-0.451,0.717
			c-0.302,0.186-0.642,0.319-1.033,0.389c-0.39,0.072-0.816,0.109-1.265,0.109h-1.938v1.031h2.045c1.309,0,2.264-0.232,2.884-0.706
			c0.624-0.469,0.927-1.195,0.927-2.175v-3.446c0-1.192-0.233-2.053-0.699-2.586C75.649,102.791,74.842,102.523,73.674,102.523z
			 M75.667,108.261h-2.003c-0.87,0-1.455-0.171-1.766-0.516c-0.3-0.345-0.448-0.957-0.448-1.83c0-0.83,0.161-1.403,0.476-1.723
			c0.322-0.315,0.905-0.474,1.748-0.474c0.835,0,1.373,0.148,1.614,0.441c0.242,0.297,0.361,0.883,0.361,1.755l0.018,0.804V108.261z
			"/>
		<rect x="85.403" y="100.094" fill="#727172" width="1.336" height="1.366"/>
		<rect x="82.959" y="100.094" fill="#727172" width="1.355" height="1.366"/>
		<path fill="#727172" d="M95.216,102.802h-3.682v1.162h3.682c0.815,0,1.369,0.156,1.651,0.469c0.285,0.31,0.432,0.806,0.432,1.482
			v2.346h-7.522h-0.144h-1.48v-1.542l-0.015-0.804c0-1.18-0.248-2.043-0.727-2.581c-0.485-0.537-1.307-0.811-2.467-0.811
			c-1.099,0-1.938,0.283-2.517,0.846c-0.575,0.563-0.87,1.41-0.87,2.546c0,2.254,1.118,3.377,3.357,3.377h4.718h0.144h8.697v-3.543
			c0-1.123-0.233-1.896-0.701-2.318C97.306,103.015,96.448,102.802,95.216,102.802z M86.978,108.261h-2.033
			c-1.448,0-2.167-0.781-2.167-2.346c0-1.495,0.719-2.243,2.167-2.243c0.432,0,0.793,0.064,1.084,0.2
			c0.282,0.14,0.495,0.33,0.624,0.568c0.137,0.24,0.219,0.471,0.256,0.696c0.055,0.224,0.069,0.483,0.069,0.778V108.261z"/>
		<rect x="107.163" y="110.472" fill="#727172" width="1.332" height="1.376"/>
		<rect x="104.724" y="110.472" fill="#727172" width="1.354" height="1.376"/>
		<path fill="#727172" d="M146.965,99.818v8.442h-1.966h-0.146h-1.916v-8.442h-1.178v8.442h-1.951h-0.148h-1.139
			c-0.419-0.022-0.73-0.142-0.917-0.353c-0.188-0.213-0.285-0.622-0.285-1.22v-3.887h-1.157v3.887c0,0.511-0.117,0.9-0.343,1.171
			c-0.23,0.268-0.501,0.401-0.828,0.401c-0.305,0-0.577-0.127-0.82-0.377c-0.235-0.253-0.357-0.585-0.357-1.002v-4.08h-1.185v3.887
			c0,0.511-0.111,0.9-0.34,1.171c-0.23,0.268-0.508,0.401-0.83,0.401c-0.303,0-0.575-0.127-0.823-0.377
			c-0.243-0.253-0.364-0.585-0.364-1.002v-4.08h-1.163v3.887c0,0.585-0.102,0.989-0.322,1.205c-0.198,0.214-0.53,0.335-0.975,0.367
			h-1.126h-0.148h-7.797h-0.142h-7.795h-0.153h-7.795h-0.148h-7.798h-0.146h-7.795h-0.156h23.364h-0.144h-2.708
			c0.013-0.042,0.018-0.097,0.018-0.166v-5.293h-1.168v4.507c0,0.327-0.047,0.567-0.134,0.724c-0.084,0.154-0.277,0.229-0.585,0.229
			h-2.325h-0.148h-1.711v-8.442h-1.183v9.474h2.894h0.148h2.705c0.342,0,0.604-0.024,0.79-0.082
			c0.172-0.052,0.315-0.184,0.425-0.394v0.476h2.982h0.144H86.812h0.156h7.795h0.146h7.798h0.148h7.795h0.153h7.795h0.142h7.797
			h0.148h1.319c0.687,0,1.229-0.28,1.646-0.836c0.443,0.588,1.034,0.886,1.777,0.886c0.709,0,1.302-0.322,1.756-0.965
			c0.488,0.643,1.143,0.965,1.966,0.965c0.729,0,1.297-0.272,1.688-0.818c0.158,0.208,0.282,0.352,0.369,0.441
			c0.092,0.087,0.238,0.161,0.416,0.23c0.182,0.064,0.427,0.097,0.717,0.097h1.319h0.148h5.045h0.146h3.124v-9.474H146.965z"/>
	</g>
	<path fill="#727172" d="M149.903,94.164c0-0.221-0.124-0.402-0.283-0.402H10.386c-0.158,0-0.282,0.182-0.282,0.402l0,0
		c0,0.223,0.124,0.403,0.282,0.403H149.62C149.779,94.567,149.903,94.387,149.903,94.164L149.903,94.164z"/>
</g>
</svg>
